%TF.GenerationSoftware,KiCad,Pcbnew,5.1.10*%
%TF.CreationDate,2021-08-28T10:57:21+12:00*%
%TF.ProjectId,Motor_Control,4d6f746f-725f-4436-9f6e-74726f6c2e6b,rev?*%
%TF.SameCoordinates,Original*%
%TF.FileFunction,Soldermask,Bot*%
%TF.FilePolarity,Negative*%
%FSLAX46Y46*%
G04 Gerber Fmt 4.6, Leading zero omitted, Abs format (unit mm)*
G04 Created by KiCad (PCBNEW 5.1.10) date 2021-08-28 10:57:21*
%MOMM*%
%LPD*%
G01*
G04 APERTURE LIST*
%ADD10R,1.700000X1.700000*%
%ADD11O,1.700000X1.700000*%
%ADD12C,6.400000*%
%ADD13C,0.800000*%
%ADD14C,7.400000*%
%ADD15R,1.150000X1.150000*%
%ADD16C,1.150000*%
%ADD17R,1.600000X1.600000*%
%ADD18O,1.600000X1.600000*%
%ADD19R,1.560000X1.560000*%
%ADD20C,1.560000*%
%ADD21R,3.500000X3.500000*%
%ADD22C,1.600000*%
G04 APERTURE END LIST*
D10*
%TO.C,J6*%
X221000000Y-138000000D03*
D11*
X221000000Y-140540000D03*
X218460000Y-138000000D03*
X218460000Y-140540000D03*
X215920000Y-138000000D03*
X215920000Y-140540000D03*
X213380000Y-138000000D03*
X213380000Y-140540000D03*
X210840000Y-138000000D03*
X210840000Y-140540000D03*
%TD*%
D12*
%TO.C,H6*%
X259000000Y-71000000D03*
D13*
X259000000Y-73400000D03*
X257302944Y-72697056D03*
X256600000Y-71000000D03*
X257302944Y-69302944D03*
X259000000Y-68600000D03*
X260697056Y-69302944D03*
X261400000Y-71000000D03*
X260697056Y-72697056D03*
%TD*%
D12*
%TO.C,H5*%
X259000000Y-140000000D03*
D13*
X256600000Y-140000000D03*
X257302944Y-138302944D03*
X259000000Y-137600000D03*
X260697056Y-138302944D03*
X261400000Y-140000000D03*
X260697056Y-141697056D03*
X259000000Y-142400000D03*
X257302944Y-141697056D03*
%TD*%
D12*
%TO.C,H4*%
X201000000Y-71000000D03*
D13*
X203400000Y-71000000D03*
X202697056Y-72697056D03*
X201000000Y-73400000D03*
X199302944Y-72697056D03*
X198600000Y-71000000D03*
X199302944Y-69302944D03*
X201000000Y-68600000D03*
X202697056Y-69302944D03*
%TD*%
D12*
%TO.C,H3*%
X201000000Y-140000000D03*
D13*
X201000000Y-137600000D03*
X202697056Y-138302944D03*
X203400000Y-140000000D03*
X202697056Y-141697056D03*
X201000000Y-142400000D03*
X199302944Y-141697056D03*
X198600000Y-140000000D03*
X199302944Y-138302944D03*
%TD*%
D14*
%TO.C,H2*%
X247000000Y-75000000D03*
D13*
X249775000Y-75000000D03*
X248962221Y-76962221D03*
X247000000Y-77775000D03*
X245037779Y-76962221D03*
X244225000Y-75000000D03*
X245037779Y-73037779D03*
X247000000Y-72225000D03*
X248962221Y-73037779D03*
%TD*%
D14*
%TO.C,H1*%
X222000000Y-75000000D03*
D13*
X224775000Y-75000000D03*
X223962221Y-76962221D03*
X222000000Y-77775000D03*
X220037779Y-76962221D03*
X219225000Y-75000000D03*
X220037779Y-73037779D03*
X222000000Y-72225000D03*
X223962221Y-73037779D03*
%TD*%
D15*
%TO.C,M2*%
X201000000Y-90000000D03*
D16*
X201000000Y-92000001D03*
X201000000Y-94000000D03*
X201000000Y-96000001D03*
%TD*%
D15*
%TO.C,M1*%
X201000000Y-116000000D03*
D16*
X201000000Y-118000001D03*
X201000000Y-120000000D03*
X201000000Y-122000001D03*
%TD*%
D15*
%TO.C,J1*%
X211000000Y-75000000D03*
D16*
X213000001Y-75000000D03*
%TD*%
D15*
%TO.C,J5*%
X257510001Y-109500000D03*
D16*
X257510001Y-111500001D03*
%TD*%
D15*
%TO.C,J4*%
X257510001Y-96000000D03*
D16*
X257510001Y-98000001D03*
%TD*%
D15*
%TO.C,J3*%
X257510001Y-123000000D03*
D16*
X257510001Y-125000001D03*
%TD*%
D17*
%TO.C,A2*%
X208300000Y-88220000D03*
D18*
X221000000Y-106000000D03*
X208300000Y-90760000D03*
X221000000Y-103460000D03*
X208300000Y-93300000D03*
X221000000Y-100920000D03*
X208300000Y-95840000D03*
X221000000Y-98380000D03*
X208300000Y-98380000D03*
X221000000Y-95840000D03*
X208300000Y-100920000D03*
X221000000Y-93300000D03*
X208300000Y-103460000D03*
X221000000Y-90760000D03*
X208300000Y-106000000D03*
X221000000Y-88220000D03*
%TD*%
D19*
%TO.C,U1*%
X225744000Y-90252000D03*
D20*
X225744000Y-92792000D03*
X225744000Y-135972000D03*
X225744000Y-95332000D03*
X225744000Y-97872000D03*
X225744000Y-100412000D03*
X225744000Y-102952000D03*
X225744000Y-105492000D03*
X225744000Y-108032000D03*
X225744000Y-110572000D03*
X225744000Y-113112000D03*
X225744000Y-115652000D03*
X225744000Y-118192000D03*
X225744000Y-120732000D03*
X225744000Y-123272000D03*
X225744000Y-125812000D03*
X225744000Y-128352000D03*
X225744000Y-130892000D03*
X225744000Y-133432000D03*
X251144000Y-90252000D03*
X251144000Y-92792000D03*
X251144000Y-95332000D03*
X251144000Y-97872000D03*
X251144000Y-100412000D03*
X251144000Y-102952000D03*
X251144000Y-105492000D03*
X251144000Y-108032000D03*
X251144000Y-110572000D03*
X251144000Y-113112000D03*
X251144000Y-115652000D03*
X251144000Y-118192000D03*
X251144000Y-120732000D03*
X251144000Y-123272000D03*
X251144000Y-125812000D03*
X251144000Y-128352000D03*
X251144000Y-130892000D03*
X251144000Y-133432000D03*
X251144000Y-135972000D03*
%TD*%
D21*
%TO.C,J2*%
X235457500Y-80000000D03*
G36*
G01*
X234457500Y-72500000D02*
X236457500Y-72500000D01*
G75*
G02*
X237207500Y-73250000I0J-750000D01*
G01*
X237207500Y-74750000D01*
G75*
G02*
X236457500Y-75500000I-750000J0D01*
G01*
X234457500Y-75500000D01*
G75*
G02*
X233707500Y-74750000I0J750000D01*
G01*
X233707500Y-73250000D01*
G75*
G02*
X234457500Y-72500000I750000J0D01*
G01*
G37*
G36*
G01*
X229882500Y-75250000D02*
X231632500Y-75250000D01*
G75*
G02*
X232507500Y-76125000I0J-875000D01*
G01*
X232507500Y-77875000D01*
G75*
G02*
X231632500Y-78750000I-875000J0D01*
G01*
X229882500Y-78750000D01*
G75*
G02*
X229007500Y-77875000I0J875000D01*
G01*
X229007500Y-76125000D01*
G75*
G02*
X229882500Y-75250000I875000J0D01*
G01*
G37*
%TD*%
D17*
%TO.C,C2*%
X203000000Y-105000000D03*
D22*
X199500000Y-105000000D03*
%TD*%
D17*
%TO.C,C1*%
X203000000Y-131000000D03*
D22*
X199500000Y-131000000D03*
%TD*%
D17*
%TO.C,A1*%
X208300000Y-114000000D03*
D18*
X221000000Y-131780000D03*
X208300000Y-116540000D03*
X221000000Y-129240000D03*
X208300000Y-119080000D03*
X221000000Y-126700000D03*
X208300000Y-121620000D03*
X221000000Y-124160000D03*
X208300000Y-124160000D03*
X221000000Y-121620000D03*
X208300000Y-126700000D03*
X221000000Y-119080000D03*
X208300000Y-129240000D03*
X221000000Y-116540000D03*
X208300000Y-131780000D03*
X221000000Y-114000000D03*
%TD*%
M02*
