%TF.GenerationSoftware,KiCad,Pcbnew,5.1.10*%
%TF.CreationDate,2021-08-28T10:57:21+12:00*%
%TF.ProjectId,Motor_Control,4d6f746f-725f-4436-9f6e-74726f6c2e6b,rev?*%
%TF.SameCoordinates,Original*%
%TF.FileFunction,Legend,Top*%
%TF.FilePolarity,Positive*%
%FSLAX46Y46*%
G04 Gerber Fmt 4.6, Leading zero omitted, Abs format (unit mm)*
G04 Created by KiCad (PCBNEW 5.1.10) date 2021-08-28 10:57:21*
%MOMM*%
%LPD*%
G01*
G04 APERTURE LIST*
%ADD10C,0.150000*%
%ADD11C,0.120000*%
%ADD12C,0.127000*%
%ADD13C,0.100000*%
G04 APERTURE END LIST*
D10*
X235285714Y-139707142D02*
X235238095Y-139754761D01*
X235095238Y-139802380D01*
X235000000Y-139802380D01*
X234857142Y-139754761D01*
X234761904Y-139659523D01*
X234714285Y-139564285D01*
X234666666Y-139373809D01*
X234666666Y-139230952D01*
X234714285Y-139040476D01*
X234761904Y-138945238D01*
X234857142Y-138850000D01*
X235000000Y-138802380D01*
X235095238Y-138802380D01*
X235238095Y-138850000D01*
X235285714Y-138897619D01*
X235857142Y-139802380D02*
X235761904Y-139754761D01*
X235714285Y-139707142D01*
X235666666Y-139611904D01*
X235666666Y-139326190D01*
X235714285Y-139230952D01*
X235761904Y-139183333D01*
X235857142Y-139135714D01*
X236000000Y-139135714D01*
X236095238Y-139183333D01*
X236142857Y-139230952D01*
X236190476Y-139326190D01*
X236190476Y-139611904D01*
X236142857Y-139707142D01*
X236095238Y-139754761D01*
X236000000Y-139802380D01*
X235857142Y-139802380D01*
X236619047Y-139135714D02*
X236619047Y-139802380D01*
X236619047Y-139230952D02*
X236666666Y-139183333D01*
X236761904Y-139135714D01*
X236904761Y-139135714D01*
X237000000Y-139183333D01*
X237047619Y-139278571D01*
X237047619Y-139802380D01*
X237380952Y-139135714D02*
X237761904Y-139135714D01*
X237523809Y-138802380D02*
X237523809Y-139659523D01*
X237571428Y-139754761D01*
X237666666Y-139802380D01*
X237761904Y-139802380D01*
X238095238Y-139802380D02*
X238095238Y-139135714D01*
X238095238Y-139326190D02*
X238142857Y-139230952D01*
X238190476Y-139183333D01*
X238285714Y-139135714D01*
X238380952Y-139135714D01*
X238857142Y-139802380D02*
X238761904Y-139754761D01*
X238714285Y-139707142D01*
X238666666Y-139611904D01*
X238666666Y-139326190D01*
X238714285Y-139230952D01*
X238761904Y-139183333D01*
X238857142Y-139135714D01*
X239000000Y-139135714D01*
X239095238Y-139183333D01*
X239142857Y-139230952D01*
X239190476Y-139326190D01*
X239190476Y-139611904D01*
X239142857Y-139707142D01*
X239095238Y-139754761D01*
X239000000Y-139802380D01*
X238857142Y-139802380D01*
X239761904Y-139802380D02*
X239666666Y-139754761D01*
X239619047Y-139659523D01*
X239619047Y-138802380D01*
X241238095Y-139278571D02*
X241380952Y-139326190D01*
X241428571Y-139373809D01*
X241476190Y-139469047D01*
X241476190Y-139611904D01*
X241428571Y-139707142D01*
X241380952Y-139754761D01*
X241285714Y-139802380D01*
X240904761Y-139802380D01*
X240904761Y-138802380D01*
X241238095Y-138802380D01*
X241333333Y-138850000D01*
X241380952Y-138897619D01*
X241428571Y-138992857D01*
X241428571Y-139088095D01*
X241380952Y-139183333D01*
X241333333Y-139230952D01*
X241238095Y-139278571D01*
X240904761Y-139278571D01*
X242047619Y-139802380D02*
X241952380Y-139754761D01*
X241904761Y-139707142D01*
X241857142Y-139611904D01*
X241857142Y-139326190D01*
X241904761Y-139230952D01*
X241952380Y-139183333D01*
X242047619Y-139135714D01*
X242190476Y-139135714D01*
X242285714Y-139183333D01*
X242333333Y-139230952D01*
X242380952Y-139326190D01*
X242380952Y-139611904D01*
X242333333Y-139707142D01*
X242285714Y-139754761D01*
X242190476Y-139802380D01*
X242047619Y-139802380D01*
X243238095Y-139802380D02*
X243238095Y-139278571D01*
X243190476Y-139183333D01*
X243095238Y-139135714D01*
X242904761Y-139135714D01*
X242809523Y-139183333D01*
X243238095Y-139754761D02*
X243142857Y-139802380D01*
X242904761Y-139802380D01*
X242809523Y-139754761D01*
X242761904Y-139659523D01*
X242761904Y-139564285D01*
X242809523Y-139469047D01*
X242904761Y-139421428D01*
X243142857Y-139421428D01*
X243238095Y-139373809D01*
X243714285Y-139802380D02*
X243714285Y-139135714D01*
X243714285Y-139326190D02*
X243761904Y-139230952D01*
X243809523Y-139183333D01*
X243904761Y-139135714D01*
X244000000Y-139135714D01*
X244761904Y-139802380D02*
X244761904Y-138802380D01*
X244761904Y-139754761D02*
X244666666Y-139802380D01*
X244476190Y-139802380D01*
X244380952Y-139754761D01*
X244333333Y-139707142D01*
X244285714Y-139611904D01*
X244285714Y-139326190D01*
X244333333Y-139230952D01*
X244380952Y-139183333D01*
X244476190Y-139135714D01*
X244666666Y-139135714D01*
X244761904Y-139183333D01*
X246571428Y-139802380D02*
X246238095Y-139326190D01*
X246000000Y-139802380D02*
X246000000Y-138802380D01*
X246380952Y-138802380D01*
X246476190Y-138850000D01*
X246523809Y-138897619D01*
X246571428Y-138992857D01*
X246571428Y-139135714D01*
X246523809Y-139230952D01*
X246476190Y-139278571D01*
X246380952Y-139326190D01*
X246000000Y-139326190D01*
X247380952Y-139754761D02*
X247285714Y-139802380D01*
X247095238Y-139802380D01*
X247000000Y-139754761D01*
X246952380Y-139659523D01*
X246952380Y-139278571D01*
X247000000Y-139183333D01*
X247095238Y-139135714D01*
X247285714Y-139135714D01*
X247380952Y-139183333D01*
X247428571Y-139278571D01*
X247428571Y-139373809D01*
X246952380Y-139469047D01*
X247761904Y-139135714D02*
X248000000Y-139802380D01*
X248238095Y-139135714D01*
X249904761Y-139802380D02*
X249333333Y-139802380D01*
X249619047Y-139802380D02*
X249619047Y-138802380D01*
X249523809Y-138945238D01*
X249428571Y-139040476D01*
X249333333Y-139088095D01*
X250333333Y-139707142D02*
X250380952Y-139754761D01*
X250333333Y-139802380D01*
X250285714Y-139754761D01*
X250333333Y-139707142D01*
X250333333Y-139802380D01*
X251000000Y-138802380D02*
X251095238Y-138802380D01*
X251190476Y-138850000D01*
X251238095Y-138897619D01*
X251285714Y-138992857D01*
X251333333Y-139183333D01*
X251333333Y-139421428D01*
X251285714Y-139611904D01*
X251238095Y-139707142D01*
X251190476Y-139754761D01*
X251095238Y-139802380D01*
X251000000Y-139802380D01*
X250904761Y-139754761D01*
X250857142Y-139707142D01*
X250809523Y-139611904D01*
X250761904Y-139421428D01*
X250761904Y-139183333D01*
X250809523Y-138992857D01*
X250857142Y-138897619D01*
X250904761Y-138850000D01*
X251000000Y-138802380D01*
X233928571Y-141452380D02*
X233928571Y-140452380D01*
X234166666Y-140452380D01*
X234309523Y-140500000D01*
X234404761Y-140595238D01*
X234452380Y-140690476D01*
X234500000Y-140880952D01*
X234500000Y-141023809D01*
X234452380Y-141214285D01*
X234404761Y-141309523D01*
X234309523Y-141404761D01*
X234166666Y-141452380D01*
X233928571Y-141452380D01*
X234928571Y-141452380D02*
X234928571Y-140785714D01*
X234928571Y-140976190D02*
X234976190Y-140880952D01*
X235023809Y-140833333D01*
X235119047Y-140785714D01*
X235214285Y-140785714D01*
X235690476Y-141452380D02*
X235595238Y-141404761D01*
X235547619Y-141357142D01*
X235500000Y-141261904D01*
X235500000Y-140976190D01*
X235547619Y-140880952D01*
X235595238Y-140833333D01*
X235690476Y-140785714D01*
X235833333Y-140785714D01*
X235928571Y-140833333D01*
X235976190Y-140880952D01*
X236023809Y-140976190D01*
X236023809Y-141261904D01*
X235976190Y-141357142D01*
X235928571Y-141404761D01*
X235833333Y-141452380D01*
X235690476Y-141452380D01*
X236452380Y-140785714D02*
X236452380Y-141785714D01*
X236452380Y-140833333D02*
X236547619Y-140785714D01*
X236738095Y-140785714D01*
X236833333Y-140833333D01*
X236880952Y-140880952D01*
X236928571Y-140976190D01*
X236928571Y-141261904D01*
X236880952Y-141357142D01*
X236833333Y-141404761D01*
X236738095Y-141452380D01*
X236547619Y-141452380D01*
X236452380Y-141404761D01*
X237500000Y-141452380D02*
X237404761Y-141404761D01*
X237357142Y-141309523D01*
X237357142Y-140452380D01*
X238261904Y-141404761D02*
X238166666Y-141452380D01*
X237976190Y-141452380D01*
X237880952Y-141404761D01*
X237833333Y-141309523D01*
X237833333Y-140928571D01*
X237880952Y-140833333D01*
X237976190Y-140785714D01*
X238166666Y-140785714D01*
X238261904Y-140833333D01*
X238309523Y-140928571D01*
X238309523Y-141023809D01*
X237833333Y-141119047D01*
X238595238Y-140785714D02*
X238976190Y-140785714D01*
X238738095Y-140452380D02*
X238738095Y-141309523D01*
X238785714Y-141404761D01*
X238880952Y-141452380D01*
X238976190Y-141452380D01*
X240071428Y-141452380D02*
X240071428Y-140452380D01*
X240547619Y-140785714D02*
X240547619Y-141452380D01*
X240547619Y-140880952D02*
X240595238Y-140833333D01*
X240690476Y-140785714D01*
X240833333Y-140785714D01*
X240928571Y-140833333D01*
X240976190Y-140928571D01*
X240976190Y-141452380D01*
X241404761Y-141404761D02*
X241500000Y-141452380D01*
X241690476Y-141452380D01*
X241785714Y-141404761D01*
X241833333Y-141309523D01*
X241833333Y-141261904D01*
X241785714Y-141166666D01*
X241690476Y-141119047D01*
X241547619Y-141119047D01*
X241452380Y-141071428D01*
X241404761Y-140976190D01*
X241404761Y-140928571D01*
X241452380Y-140833333D01*
X241547619Y-140785714D01*
X241690476Y-140785714D01*
X241785714Y-140833333D01*
X242119047Y-140785714D02*
X242500000Y-140785714D01*
X242261904Y-140452380D02*
X242261904Y-141309523D01*
X242309523Y-141404761D01*
X242404761Y-141452380D01*
X242500000Y-141452380D01*
X242833333Y-141452380D02*
X242833333Y-140785714D01*
X242833333Y-140976190D02*
X242880952Y-140880952D01*
X242928571Y-140833333D01*
X243023809Y-140785714D01*
X243119047Y-140785714D01*
X243880952Y-140785714D02*
X243880952Y-141452380D01*
X243452380Y-140785714D02*
X243452380Y-141309523D01*
X243500000Y-141404761D01*
X243595238Y-141452380D01*
X243738095Y-141452380D01*
X243833333Y-141404761D01*
X243880952Y-141357142D01*
X244357142Y-141452380D02*
X244357142Y-140785714D01*
X244357142Y-140880952D02*
X244404761Y-140833333D01*
X244500000Y-140785714D01*
X244642857Y-140785714D01*
X244738095Y-140833333D01*
X244785714Y-140928571D01*
X244785714Y-141452380D01*
X244785714Y-140928571D02*
X244833333Y-140833333D01*
X244928571Y-140785714D01*
X245071428Y-140785714D01*
X245166666Y-140833333D01*
X245214285Y-140928571D01*
X245214285Y-141452380D01*
X246071428Y-141404761D02*
X245976190Y-141452380D01*
X245785714Y-141452380D01*
X245690476Y-141404761D01*
X245642857Y-141309523D01*
X245642857Y-140928571D01*
X245690476Y-140833333D01*
X245785714Y-140785714D01*
X245976190Y-140785714D01*
X246071428Y-140833333D01*
X246119047Y-140928571D01*
X246119047Y-141023809D01*
X245642857Y-141119047D01*
X246547619Y-140785714D02*
X246547619Y-141452380D01*
X246547619Y-140880952D02*
X246595238Y-140833333D01*
X246690476Y-140785714D01*
X246833333Y-140785714D01*
X246928571Y-140833333D01*
X246976190Y-140928571D01*
X246976190Y-141452380D01*
X247309523Y-140785714D02*
X247690476Y-140785714D01*
X247452380Y-140452380D02*
X247452380Y-141309523D01*
X247500000Y-141404761D01*
X247595238Y-141452380D01*
X247690476Y-141452380D01*
X248452380Y-141452380D02*
X248452380Y-140928571D01*
X248404761Y-140833333D01*
X248309523Y-140785714D01*
X248119047Y-140785714D01*
X248023809Y-140833333D01*
X248452380Y-141404761D02*
X248357142Y-141452380D01*
X248119047Y-141452380D01*
X248023809Y-141404761D01*
X247976190Y-141309523D01*
X247976190Y-141214285D01*
X248023809Y-141119047D01*
X248119047Y-141071428D01*
X248357142Y-141071428D01*
X248452380Y-141023809D01*
X248785714Y-140785714D02*
X249166666Y-140785714D01*
X248928571Y-140452380D02*
X248928571Y-141309523D01*
X248976190Y-141404761D01*
X249071428Y-141452380D01*
X249166666Y-141452380D01*
X249500000Y-141452380D02*
X249500000Y-140785714D01*
X249500000Y-140452380D02*
X249452380Y-140500000D01*
X249500000Y-140547619D01*
X249547619Y-140500000D01*
X249500000Y-140452380D01*
X249500000Y-140547619D01*
X250119047Y-141452380D02*
X250023809Y-141404761D01*
X249976190Y-141357142D01*
X249928571Y-141261904D01*
X249928571Y-140976190D01*
X249976190Y-140880952D01*
X250023809Y-140833333D01*
X250119047Y-140785714D01*
X250261904Y-140785714D01*
X250357142Y-140833333D01*
X250404761Y-140880952D01*
X250452380Y-140976190D01*
X250452380Y-141261904D01*
X250404761Y-141357142D01*
X250357142Y-141404761D01*
X250261904Y-141452380D01*
X250119047Y-141452380D01*
X250880952Y-140785714D02*
X250880952Y-141452380D01*
X250880952Y-140880952D02*
X250928571Y-140833333D01*
X251023809Y-140785714D01*
X251166666Y-140785714D01*
X251261904Y-140833333D01*
X251309523Y-140928571D01*
X251309523Y-141452380D01*
X232238095Y-143102380D02*
X232238095Y-142102380D01*
X232476190Y-142102380D01*
X232619047Y-142150000D01*
X232714285Y-142245238D01*
X232761904Y-142340476D01*
X232809523Y-142530952D01*
X232809523Y-142673809D01*
X232761904Y-142864285D01*
X232714285Y-142959523D01*
X232619047Y-143054761D01*
X232476190Y-143102380D01*
X232238095Y-143102380D01*
X233666666Y-143102380D02*
X233666666Y-142578571D01*
X233619047Y-142483333D01*
X233523809Y-142435714D01*
X233333333Y-142435714D01*
X233238095Y-142483333D01*
X233666666Y-143054761D02*
X233571428Y-143102380D01*
X233333333Y-143102380D01*
X233238095Y-143054761D01*
X233190476Y-142959523D01*
X233190476Y-142864285D01*
X233238095Y-142769047D01*
X233333333Y-142721428D01*
X233571428Y-142721428D01*
X233666666Y-142673809D01*
X234142857Y-142435714D02*
X234142857Y-143102380D01*
X234142857Y-142530952D02*
X234190476Y-142483333D01*
X234285714Y-142435714D01*
X234428571Y-142435714D01*
X234523809Y-142483333D01*
X234571428Y-142578571D01*
X234571428Y-143102380D01*
X235047619Y-143102380D02*
X235047619Y-142435714D01*
X235047619Y-142102380D02*
X235000000Y-142150000D01*
X235047619Y-142197619D01*
X235095238Y-142150000D01*
X235047619Y-142102380D01*
X235047619Y-142197619D01*
X235904761Y-143054761D02*
X235809523Y-143102380D01*
X235619047Y-143102380D01*
X235523809Y-143054761D01*
X235476190Y-142959523D01*
X235476190Y-142578571D01*
X235523809Y-142483333D01*
X235619047Y-142435714D01*
X235809523Y-142435714D01*
X235904761Y-142483333D01*
X235952380Y-142578571D01*
X235952380Y-142673809D01*
X235476190Y-142769047D01*
X236523809Y-143102380D02*
X236428571Y-143054761D01*
X236380952Y-142959523D01*
X236380952Y-142102380D01*
X237666666Y-142578571D02*
X238000000Y-142578571D01*
X238142857Y-143102380D02*
X237666666Y-143102380D01*
X237666666Y-142102380D01*
X238142857Y-142102380D01*
X238571428Y-143102380D02*
X238571428Y-142435714D01*
X238571428Y-142102380D02*
X238523809Y-142150000D01*
X238571428Y-142197619D01*
X238619047Y-142150000D01*
X238571428Y-142102380D01*
X238571428Y-142197619D01*
X239000000Y-143054761D02*
X239095238Y-143102380D01*
X239285714Y-143102380D01*
X239380952Y-143054761D01*
X239428571Y-142959523D01*
X239428571Y-142911904D01*
X239380952Y-142816666D01*
X239285714Y-142769047D01*
X239142857Y-142769047D01*
X239047619Y-142721428D01*
X239000000Y-142626190D01*
X239000000Y-142578571D01*
X239047619Y-142483333D01*
X239142857Y-142435714D01*
X239285714Y-142435714D01*
X239380952Y-142483333D01*
X240238095Y-143054761D02*
X240142857Y-143102380D01*
X239952380Y-143102380D01*
X239857142Y-143054761D01*
X239809523Y-142959523D01*
X239809523Y-142578571D01*
X239857142Y-142483333D01*
X239952380Y-142435714D01*
X240142857Y-142435714D01*
X240238095Y-142483333D01*
X240285714Y-142578571D01*
X240285714Y-142673809D01*
X239809523Y-142769047D01*
X240714285Y-142435714D02*
X240714285Y-143102380D01*
X240714285Y-142530952D02*
X240761904Y-142483333D01*
X240857142Y-142435714D01*
X241000000Y-142435714D01*
X241095238Y-142483333D01*
X241142857Y-142578571D01*
X241142857Y-143102380D01*
X242380952Y-143007142D02*
X242428571Y-143054761D01*
X242380952Y-143102380D01*
X242333333Y-143054761D01*
X242380952Y-143007142D01*
X242380952Y-143102380D01*
X242380952Y-142483333D02*
X242428571Y-142530952D01*
X242380952Y-142578571D01*
X242333333Y-142530952D01*
X242380952Y-142483333D01*
X242380952Y-142578571D01*
X243476190Y-142102380D02*
X243809523Y-143102380D01*
X244142857Y-142102380D01*
X244476190Y-142102380D02*
X244476190Y-142911904D01*
X244523809Y-143007142D01*
X244571428Y-143054761D01*
X244666666Y-143102380D01*
X244857142Y-143102380D01*
X244952380Y-143054761D01*
X245000000Y-143007142D01*
X245047619Y-142911904D01*
X245047619Y-142102380D01*
X245428571Y-142102380D02*
X245666666Y-143102380D01*
X245857142Y-142388095D01*
X246047619Y-143102380D01*
X246285714Y-142102380D01*
X247428571Y-142578571D02*
X247761904Y-142578571D01*
X247904761Y-143102380D02*
X247428571Y-143102380D01*
X247428571Y-142102380D01*
X247904761Y-142102380D01*
X248333333Y-143102380D02*
X248333333Y-142102380D01*
X248904761Y-143102380D01*
X248904761Y-142102380D01*
X249904761Y-142150000D02*
X249809523Y-142102380D01*
X249666666Y-142102380D01*
X249523809Y-142150000D01*
X249428571Y-142245238D01*
X249380952Y-142340476D01*
X249333333Y-142530952D01*
X249333333Y-142673809D01*
X249380952Y-142864285D01*
X249428571Y-142959523D01*
X249523809Y-143054761D01*
X249666666Y-143102380D01*
X249761904Y-143102380D01*
X249904761Y-143054761D01*
X249952380Y-143007142D01*
X249952380Y-142673809D01*
X249761904Y-142673809D01*
X250952380Y-143102380D02*
X250619047Y-142626190D01*
X250380952Y-143102380D02*
X250380952Y-142102380D01*
X250761904Y-142102380D01*
X250857142Y-142150000D01*
X250904761Y-142197619D01*
X250952380Y-142292857D01*
X250952380Y-142435714D01*
X250904761Y-142530952D01*
X250857142Y-142578571D01*
X250761904Y-142626190D01*
X250380952Y-142626190D01*
X251809523Y-142435714D02*
X251809523Y-143102380D01*
X251571428Y-142054761D02*
X251333333Y-142769047D01*
X251952380Y-142769047D01*
X252476190Y-142530952D02*
X252380952Y-142483333D01*
X252333333Y-142435714D01*
X252285714Y-142340476D01*
X252285714Y-142292857D01*
X252333333Y-142197619D01*
X252380952Y-142150000D01*
X252476190Y-142102380D01*
X252666666Y-142102380D01*
X252761904Y-142150000D01*
X252809523Y-142197619D01*
X252857142Y-142292857D01*
X252857142Y-142340476D01*
X252809523Y-142435714D01*
X252761904Y-142483333D01*
X252666666Y-142530952D01*
X252476190Y-142530952D01*
X252380952Y-142578571D01*
X252333333Y-142626190D01*
X252285714Y-142721428D01*
X252285714Y-142911904D01*
X252333333Y-143007142D01*
X252380952Y-143054761D01*
X252476190Y-143102380D01*
X252666666Y-143102380D01*
X252761904Y-143054761D01*
X252809523Y-143007142D01*
X252857142Y-142911904D01*
X252857142Y-142721428D01*
X252809523Y-142626190D01*
X252761904Y-142578571D01*
X252666666Y-142530952D01*
X253333333Y-143102380D02*
X253523809Y-143102380D01*
X253619047Y-143054761D01*
X253666666Y-143007142D01*
X253761904Y-142864285D01*
X253809523Y-142673809D01*
X253809523Y-142292857D01*
X253761904Y-142197619D01*
X253714285Y-142150000D01*
X253619047Y-142102380D01*
X253428571Y-142102380D01*
X253333333Y-142150000D01*
X253285714Y-142197619D01*
X253238095Y-142292857D01*
X253238095Y-142530952D01*
X253285714Y-142626190D01*
X253333333Y-142673809D01*
X253428571Y-142721428D01*
X253619047Y-142721428D01*
X253714285Y-142673809D01*
X253761904Y-142626190D01*
X253809523Y-142530952D01*
D11*
%TO.C,TP7*%
X261700000Y-98000000D02*
G75*
G03*
X261700000Y-98000000I-700000J0D01*
G01*
%TO.C,TP6*%
X261700000Y-111500000D02*
G75*
G03*
X261700000Y-111500000I-700000J0D01*
G01*
%TO.C,TP5*%
X261700000Y-125000000D02*
G75*
G03*
X261700000Y-125000000I-700000J0D01*
G01*
%TO.C,TP4*%
X254200000Y-103500000D02*
G75*
G03*
X254200000Y-103500000I-700000J0D01*
G01*
%TO.C,TP3*%
X254200000Y-105500000D02*
G75*
G03*
X254200000Y-105500000I-700000J0D01*
G01*
%TO.C,TP2*%
X254200000Y-89500000D02*
G75*
G03*
X254200000Y-89500000I-700000J0D01*
G01*
%TO.C,TP1*%
X254200000Y-91500000D02*
G75*
G03*
X254200000Y-91500000I-700000J0D01*
G01*
%TO.C,J6*%
X222330000Y-136670000D02*
X222330000Y-138000000D01*
X221000000Y-136670000D02*
X222330000Y-136670000D01*
X222330000Y-139270000D02*
X222330000Y-141870000D01*
X219730000Y-139270000D02*
X222330000Y-139270000D01*
X219730000Y-136670000D02*
X219730000Y-139270000D01*
X222330000Y-141870000D02*
X209510000Y-141870000D01*
X219730000Y-136670000D02*
X209510000Y-136670000D01*
X209510000Y-136670000D02*
X209510000Y-141870000D01*
%TO.C,M2*%
X201000000Y-87595999D02*
X200365000Y-86071999D01*
X200365000Y-86071999D02*
X201635000Y-86071999D01*
X201635000Y-86071999D02*
X201000000Y-87595999D01*
X198050001Y-98149979D02*
X203550000Y-98149979D01*
X203550000Y-98149979D02*
X203550000Y-87849999D01*
X203550000Y-87849999D02*
X198050001Y-87849999D01*
X198050001Y-87849999D02*
X198050001Y-98149979D01*
%TO.C,M1*%
X201000000Y-113595999D02*
X200365000Y-112071999D01*
X200365000Y-112071999D02*
X201635000Y-112071999D01*
X201635000Y-112071999D02*
X201000000Y-113595999D01*
X198050001Y-124149979D02*
X203550000Y-124149979D01*
X203550000Y-124149979D02*
X203550000Y-113849999D01*
X203550000Y-113849999D02*
X198050001Y-113849999D01*
X198050001Y-113849999D02*
X198050001Y-124149979D01*
%TO.C,J1*%
X207896001Y-75000000D02*
X206372001Y-75635000D01*
X206372001Y-75635000D02*
X206372001Y-74365000D01*
X206372001Y-74365000D02*
X207896001Y-75000000D01*
X215849985Y-77949999D02*
X215849985Y-72450000D01*
X215849985Y-72450000D02*
X208150001Y-72450000D01*
X208150001Y-72450000D02*
X208150001Y-77949999D01*
X208150001Y-77949999D02*
X215849985Y-77949999D01*
%TO.C,J5*%
X257510001Y-106396001D02*
X256875001Y-104872001D01*
X256875001Y-104872001D02*
X258145001Y-104872001D01*
X258145001Y-104872001D02*
X257510001Y-106396001D01*
X254560002Y-114349985D02*
X260060001Y-114349985D01*
X260060001Y-114349985D02*
X260060001Y-106650001D01*
X260060001Y-106650001D02*
X254560002Y-106650001D01*
X254560002Y-106650001D02*
X254560002Y-114349985D01*
%TO.C,J4*%
X257510001Y-92896001D02*
X256875001Y-91372001D01*
X256875001Y-91372001D02*
X258145001Y-91372001D01*
X258145001Y-91372001D02*
X257510001Y-92896001D01*
X254560002Y-100849985D02*
X260060001Y-100849985D01*
X260060001Y-100849985D02*
X260060001Y-93150001D01*
X260060001Y-93150001D02*
X254560002Y-93150001D01*
X254560002Y-93150001D02*
X254560002Y-100849985D01*
%TO.C,J3*%
X257510001Y-119896001D02*
X256875001Y-118372001D01*
X256875001Y-118372001D02*
X258145001Y-118372001D01*
X258145001Y-118372001D02*
X257510001Y-119896001D01*
X254560002Y-127849985D02*
X260060001Y-127849985D01*
X260060001Y-127849985D02*
X260060001Y-120150001D01*
X260060001Y-120150001D02*
X254560002Y-120150001D01*
X254560002Y-120150001D02*
X254560002Y-127849985D01*
%TO.C,A2*%
X222400000Y-86820000D02*
X209570000Y-86820000D01*
X222400000Y-107400000D02*
X222400000Y-86820000D01*
X206900000Y-107400000D02*
X222400000Y-107400000D01*
X206900000Y-89490000D02*
X206900000Y-107400000D01*
X209570000Y-89490000D02*
X206900000Y-89490000D01*
X209570000Y-86820000D02*
X209570000Y-89490000D01*
X206900000Y-86820000D02*
X206900000Y-88220000D01*
X208300000Y-86820000D02*
X206900000Y-86820000D01*
X209570000Y-89490000D02*
X209570000Y-107400000D01*
X219730000Y-86820000D02*
X219730000Y-107400000D01*
D12*
%TO.C,U1*%
X252394000Y-137262000D02*
X224494000Y-137262000D01*
X252394000Y-82862000D02*
X252394000Y-137262000D01*
X224494000Y-82862000D02*
X252394000Y-82862000D01*
X224494000Y-137262000D02*
X224494000Y-82862000D01*
D11*
%TO.C,J2*%
X239207500Y-81100000D02*
X240257500Y-81100000D01*
X240257500Y-80050000D02*
X240257500Y-81100000D01*
X230857500Y-75000000D02*
X230857500Y-66200000D01*
X230857500Y-66200000D02*
X240057500Y-66200000D01*
X233557500Y-80900000D02*
X230857500Y-80900000D01*
X230857500Y-80900000D02*
X230857500Y-79000000D01*
X240057500Y-66200000D02*
X240057500Y-80900000D01*
X240057500Y-80900000D02*
X237457500Y-80900000D01*
%TO.C,C2*%
X205259698Y-107715000D02*
X205259698Y-106915000D01*
X205659698Y-107315000D02*
X204859698Y-107315000D01*
X197169000Y-105533000D02*
X197169000Y-104467000D01*
X197209000Y-105768000D02*
X197209000Y-104232000D01*
X197249000Y-105948000D02*
X197249000Y-104052000D01*
X197289000Y-106098000D02*
X197289000Y-103902000D01*
X197329000Y-106229000D02*
X197329000Y-103771000D01*
X197369000Y-106346000D02*
X197369000Y-103654000D01*
X197409000Y-106453000D02*
X197409000Y-103547000D01*
X197449000Y-106552000D02*
X197449000Y-103448000D01*
X197489000Y-106645000D02*
X197489000Y-103355000D01*
X197529000Y-106731000D02*
X197529000Y-103269000D01*
X197569000Y-106813000D02*
X197569000Y-103187000D01*
X197609000Y-106890000D02*
X197609000Y-103110000D01*
X197649000Y-106964000D02*
X197649000Y-103036000D01*
X197689000Y-107034000D02*
X197689000Y-102966000D01*
X197729000Y-107102000D02*
X197729000Y-102898000D01*
X197769000Y-107166000D02*
X197769000Y-102834000D01*
X197809000Y-107228000D02*
X197809000Y-102772000D01*
X197849000Y-107287000D02*
X197849000Y-102713000D01*
X197889000Y-107345000D02*
X197889000Y-102655000D01*
X197929000Y-107400000D02*
X197929000Y-102600000D01*
X197969000Y-107454000D02*
X197969000Y-102546000D01*
X198009000Y-107505000D02*
X198009000Y-102495000D01*
X198049000Y-107556000D02*
X198049000Y-102444000D01*
X198089000Y-107604000D02*
X198089000Y-102396000D01*
X198129000Y-107651000D02*
X198129000Y-102349000D01*
X198169000Y-107697000D02*
X198169000Y-102303000D01*
X198209000Y-107741000D02*
X198209000Y-102259000D01*
X198249000Y-107784000D02*
X198249000Y-102216000D01*
X198289000Y-107826000D02*
X198289000Y-102174000D01*
X198329000Y-107867000D02*
X198329000Y-102133000D01*
X198369000Y-107907000D02*
X198369000Y-102093000D01*
X198409000Y-107945000D02*
X198409000Y-102055000D01*
X198449000Y-107983000D02*
X198449000Y-102017000D01*
X198489000Y-103960000D02*
X198489000Y-101981000D01*
X198489000Y-108019000D02*
X198489000Y-106040000D01*
X198529000Y-103960000D02*
X198529000Y-101945000D01*
X198529000Y-108055000D02*
X198529000Y-106040000D01*
X198569000Y-103960000D02*
X198569000Y-101910000D01*
X198569000Y-108090000D02*
X198569000Y-106040000D01*
X198609000Y-103960000D02*
X198609000Y-101876000D01*
X198609000Y-108124000D02*
X198609000Y-106040000D01*
X198649000Y-103960000D02*
X198649000Y-101844000D01*
X198649000Y-108156000D02*
X198649000Y-106040000D01*
X198689000Y-103960000D02*
X198689000Y-101811000D01*
X198689000Y-108189000D02*
X198689000Y-106040000D01*
X198729000Y-103960000D02*
X198729000Y-101780000D01*
X198729000Y-108220000D02*
X198729000Y-106040000D01*
X198769000Y-103960000D02*
X198769000Y-101750000D01*
X198769000Y-108250000D02*
X198769000Y-106040000D01*
X198809000Y-103960000D02*
X198809000Y-101720000D01*
X198809000Y-108280000D02*
X198809000Y-106040000D01*
X198849000Y-103960000D02*
X198849000Y-101691000D01*
X198849000Y-108309000D02*
X198849000Y-106040000D01*
X198889000Y-103960000D02*
X198889000Y-101662000D01*
X198889000Y-108338000D02*
X198889000Y-106040000D01*
X198929000Y-103960000D02*
X198929000Y-101635000D01*
X198929000Y-108365000D02*
X198929000Y-106040000D01*
X198969000Y-103960000D02*
X198969000Y-101608000D01*
X198969000Y-108392000D02*
X198969000Y-106040000D01*
X199009000Y-103960000D02*
X199009000Y-101582000D01*
X199009000Y-108418000D02*
X199009000Y-106040000D01*
X199049000Y-103960000D02*
X199049000Y-101556000D01*
X199049000Y-108444000D02*
X199049000Y-106040000D01*
X199089000Y-103960000D02*
X199089000Y-101531000D01*
X199089000Y-108469000D02*
X199089000Y-106040000D01*
X199129000Y-103960000D02*
X199129000Y-101507000D01*
X199129000Y-108493000D02*
X199129000Y-106040000D01*
X199169000Y-103960000D02*
X199169000Y-101483000D01*
X199169000Y-108517000D02*
X199169000Y-106040000D01*
X199209000Y-103960000D02*
X199209000Y-101460000D01*
X199209000Y-108540000D02*
X199209000Y-106040000D01*
X199249000Y-103960000D02*
X199249000Y-101438000D01*
X199249000Y-108562000D02*
X199249000Y-106040000D01*
X199289000Y-103960000D02*
X199289000Y-101416000D01*
X199289000Y-108584000D02*
X199289000Y-106040000D01*
X199329000Y-103960000D02*
X199329000Y-101394000D01*
X199329000Y-108606000D02*
X199329000Y-106040000D01*
X199369000Y-103960000D02*
X199369000Y-101373000D01*
X199369000Y-108627000D02*
X199369000Y-106040000D01*
X199409000Y-103960000D02*
X199409000Y-101353000D01*
X199409000Y-108647000D02*
X199409000Y-106040000D01*
X199449000Y-103960000D02*
X199449000Y-101334000D01*
X199449000Y-108666000D02*
X199449000Y-106040000D01*
X199489000Y-103960000D02*
X199489000Y-101314000D01*
X199489000Y-108686000D02*
X199489000Y-106040000D01*
X199529000Y-103960000D02*
X199529000Y-101296000D01*
X199529000Y-108704000D02*
X199529000Y-106040000D01*
X199569000Y-103960000D02*
X199569000Y-101278000D01*
X199569000Y-108722000D02*
X199569000Y-106040000D01*
X199609000Y-103960000D02*
X199609000Y-101260000D01*
X199609000Y-108740000D02*
X199609000Y-106040000D01*
X199649000Y-103960000D02*
X199649000Y-101243000D01*
X199649000Y-108757000D02*
X199649000Y-106040000D01*
X199689000Y-103960000D02*
X199689000Y-101226000D01*
X199689000Y-108774000D02*
X199689000Y-106040000D01*
X199729000Y-103960000D02*
X199729000Y-101210000D01*
X199729000Y-108790000D02*
X199729000Y-106040000D01*
X199769000Y-103960000D02*
X199769000Y-101195000D01*
X199769000Y-108805000D02*
X199769000Y-106040000D01*
X199809000Y-103960000D02*
X199809000Y-101179000D01*
X199809000Y-108821000D02*
X199809000Y-106040000D01*
X199849000Y-103960000D02*
X199849000Y-101165000D01*
X199849000Y-108835000D02*
X199849000Y-106040000D01*
X199889000Y-103960000D02*
X199889000Y-101150000D01*
X199889000Y-108850000D02*
X199889000Y-106040000D01*
X199929000Y-103960000D02*
X199929000Y-101137000D01*
X199929000Y-108863000D02*
X199929000Y-106040000D01*
X199969000Y-103960000D02*
X199969000Y-101123000D01*
X199969000Y-108877000D02*
X199969000Y-106040000D01*
X200009000Y-103960000D02*
X200009000Y-101111000D01*
X200009000Y-108889000D02*
X200009000Y-106040000D01*
X200049000Y-103960000D02*
X200049000Y-101098000D01*
X200049000Y-108902000D02*
X200049000Y-106040000D01*
X200089000Y-103960000D02*
X200089000Y-101086000D01*
X200089000Y-108914000D02*
X200089000Y-106040000D01*
X200129000Y-103960000D02*
X200129000Y-101075000D01*
X200129000Y-108925000D02*
X200129000Y-106040000D01*
X200169000Y-103960000D02*
X200169000Y-101064000D01*
X200169000Y-108936000D02*
X200169000Y-106040000D01*
X200209000Y-103960000D02*
X200209000Y-101053000D01*
X200209000Y-108947000D02*
X200209000Y-106040000D01*
X200249000Y-103960000D02*
X200249000Y-101043000D01*
X200249000Y-108957000D02*
X200249000Y-106040000D01*
X200289000Y-103960000D02*
X200289000Y-101033000D01*
X200289000Y-108967000D02*
X200289000Y-106040000D01*
X200329000Y-103960000D02*
X200329000Y-101024000D01*
X200329000Y-108976000D02*
X200329000Y-106040000D01*
X200369000Y-103960000D02*
X200369000Y-101015000D01*
X200369000Y-108985000D02*
X200369000Y-106040000D01*
X200409000Y-103960000D02*
X200409000Y-101006000D01*
X200409000Y-108994000D02*
X200409000Y-106040000D01*
X200449000Y-103960000D02*
X200449000Y-100998000D01*
X200449000Y-109002000D02*
X200449000Y-106040000D01*
X200489000Y-103960000D02*
X200489000Y-100990000D01*
X200489000Y-109010000D02*
X200489000Y-106040000D01*
X200529000Y-103960000D02*
X200529000Y-100983000D01*
X200529000Y-109017000D02*
X200529000Y-106040000D01*
X200570000Y-109024000D02*
X200570000Y-100976000D01*
X200610000Y-109030000D02*
X200610000Y-100970000D01*
X200650000Y-109037000D02*
X200650000Y-100963000D01*
X200690000Y-109042000D02*
X200690000Y-100958000D01*
X200730000Y-109048000D02*
X200730000Y-100952000D01*
X200770000Y-109052000D02*
X200770000Y-100948000D01*
X200810000Y-109057000D02*
X200810000Y-100943000D01*
X200850000Y-109061000D02*
X200850000Y-100939000D01*
X200890000Y-109065000D02*
X200890000Y-100935000D01*
X200930000Y-109068000D02*
X200930000Y-100932000D01*
X200970000Y-109071000D02*
X200970000Y-100929000D01*
X201010000Y-109074000D02*
X201010000Y-100926000D01*
X201050000Y-109076000D02*
X201050000Y-100924000D01*
X201090000Y-109077000D02*
X201090000Y-100923000D01*
X201130000Y-109079000D02*
X201130000Y-100921000D01*
X201170000Y-109080000D02*
X201170000Y-100920000D01*
X201210000Y-109080000D02*
X201210000Y-100920000D01*
X201250000Y-109080000D02*
X201250000Y-100920000D01*
X205370000Y-105000000D02*
G75*
G03*
X205370000Y-105000000I-4120000J0D01*
G01*
%TO.C,C1*%
X205259698Y-133715000D02*
X205259698Y-132915000D01*
X205659698Y-133315000D02*
X204859698Y-133315000D01*
X197169000Y-131533000D02*
X197169000Y-130467000D01*
X197209000Y-131768000D02*
X197209000Y-130232000D01*
X197249000Y-131948000D02*
X197249000Y-130052000D01*
X197289000Y-132098000D02*
X197289000Y-129902000D01*
X197329000Y-132229000D02*
X197329000Y-129771000D01*
X197369000Y-132346000D02*
X197369000Y-129654000D01*
X197409000Y-132453000D02*
X197409000Y-129547000D01*
X197449000Y-132552000D02*
X197449000Y-129448000D01*
X197489000Y-132645000D02*
X197489000Y-129355000D01*
X197529000Y-132731000D02*
X197529000Y-129269000D01*
X197569000Y-132813000D02*
X197569000Y-129187000D01*
X197609000Y-132890000D02*
X197609000Y-129110000D01*
X197649000Y-132964000D02*
X197649000Y-129036000D01*
X197689000Y-133034000D02*
X197689000Y-128966000D01*
X197729000Y-133102000D02*
X197729000Y-128898000D01*
X197769000Y-133166000D02*
X197769000Y-128834000D01*
X197809000Y-133228000D02*
X197809000Y-128772000D01*
X197849000Y-133287000D02*
X197849000Y-128713000D01*
X197889000Y-133345000D02*
X197889000Y-128655000D01*
X197929000Y-133400000D02*
X197929000Y-128600000D01*
X197969000Y-133454000D02*
X197969000Y-128546000D01*
X198009000Y-133505000D02*
X198009000Y-128495000D01*
X198049000Y-133556000D02*
X198049000Y-128444000D01*
X198089000Y-133604000D02*
X198089000Y-128396000D01*
X198129000Y-133651000D02*
X198129000Y-128349000D01*
X198169000Y-133697000D02*
X198169000Y-128303000D01*
X198209000Y-133741000D02*
X198209000Y-128259000D01*
X198249000Y-133784000D02*
X198249000Y-128216000D01*
X198289000Y-133826000D02*
X198289000Y-128174000D01*
X198329000Y-133867000D02*
X198329000Y-128133000D01*
X198369000Y-133907000D02*
X198369000Y-128093000D01*
X198409000Y-133945000D02*
X198409000Y-128055000D01*
X198449000Y-133983000D02*
X198449000Y-128017000D01*
X198489000Y-129960000D02*
X198489000Y-127981000D01*
X198489000Y-134019000D02*
X198489000Y-132040000D01*
X198529000Y-129960000D02*
X198529000Y-127945000D01*
X198529000Y-134055000D02*
X198529000Y-132040000D01*
X198569000Y-129960000D02*
X198569000Y-127910000D01*
X198569000Y-134090000D02*
X198569000Y-132040000D01*
X198609000Y-129960000D02*
X198609000Y-127876000D01*
X198609000Y-134124000D02*
X198609000Y-132040000D01*
X198649000Y-129960000D02*
X198649000Y-127844000D01*
X198649000Y-134156000D02*
X198649000Y-132040000D01*
X198689000Y-129960000D02*
X198689000Y-127811000D01*
X198689000Y-134189000D02*
X198689000Y-132040000D01*
X198729000Y-129960000D02*
X198729000Y-127780000D01*
X198729000Y-134220000D02*
X198729000Y-132040000D01*
X198769000Y-129960000D02*
X198769000Y-127750000D01*
X198769000Y-134250000D02*
X198769000Y-132040000D01*
X198809000Y-129960000D02*
X198809000Y-127720000D01*
X198809000Y-134280000D02*
X198809000Y-132040000D01*
X198849000Y-129960000D02*
X198849000Y-127691000D01*
X198849000Y-134309000D02*
X198849000Y-132040000D01*
X198889000Y-129960000D02*
X198889000Y-127662000D01*
X198889000Y-134338000D02*
X198889000Y-132040000D01*
X198929000Y-129960000D02*
X198929000Y-127635000D01*
X198929000Y-134365000D02*
X198929000Y-132040000D01*
X198969000Y-129960000D02*
X198969000Y-127608000D01*
X198969000Y-134392000D02*
X198969000Y-132040000D01*
X199009000Y-129960000D02*
X199009000Y-127582000D01*
X199009000Y-134418000D02*
X199009000Y-132040000D01*
X199049000Y-129960000D02*
X199049000Y-127556000D01*
X199049000Y-134444000D02*
X199049000Y-132040000D01*
X199089000Y-129960000D02*
X199089000Y-127531000D01*
X199089000Y-134469000D02*
X199089000Y-132040000D01*
X199129000Y-129960000D02*
X199129000Y-127507000D01*
X199129000Y-134493000D02*
X199129000Y-132040000D01*
X199169000Y-129960000D02*
X199169000Y-127483000D01*
X199169000Y-134517000D02*
X199169000Y-132040000D01*
X199209000Y-129960000D02*
X199209000Y-127460000D01*
X199209000Y-134540000D02*
X199209000Y-132040000D01*
X199249000Y-129960000D02*
X199249000Y-127438000D01*
X199249000Y-134562000D02*
X199249000Y-132040000D01*
X199289000Y-129960000D02*
X199289000Y-127416000D01*
X199289000Y-134584000D02*
X199289000Y-132040000D01*
X199329000Y-129960000D02*
X199329000Y-127394000D01*
X199329000Y-134606000D02*
X199329000Y-132040000D01*
X199369000Y-129960000D02*
X199369000Y-127373000D01*
X199369000Y-134627000D02*
X199369000Y-132040000D01*
X199409000Y-129960000D02*
X199409000Y-127353000D01*
X199409000Y-134647000D02*
X199409000Y-132040000D01*
X199449000Y-129960000D02*
X199449000Y-127334000D01*
X199449000Y-134666000D02*
X199449000Y-132040000D01*
X199489000Y-129960000D02*
X199489000Y-127314000D01*
X199489000Y-134686000D02*
X199489000Y-132040000D01*
X199529000Y-129960000D02*
X199529000Y-127296000D01*
X199529000Y-134704000D02*
X199529000Y-132040000D01*
X199569000Y-129960000D02*
X199569000Y-127278000D01*
X199569000Y-134722000D02*
X199569000Y-132040000D01*
X199609000Y-129960000D02*
X199609000Y-127260000D01*
X199609000Y-134740000D02*
X199609000Y-132040000D01*
X199649000Y-129960000D02*
X199649000Y-127243000D01*
X199649000Y-134757000D02*
X199649000Y-132040000D01*
X199689000Y-129960000D02*
X199689000Y-127226000D01*
X199689000Y-134774000D02*
X199689000Y-132040000D01*
X199729000Y-129960000D02*
X199729000Y-127210000D01*
X199729000Y-134790000D02*
X199729000Y-132040000D01*
X199769000Y-129960000D02*
X199769000Y-127195000D01*
X199769000Y-134805000D02*
X199769000Y-132040000D01*
X199809000Y-129960000D02*
X199809000Y-127179000D01*
X199809000Y-134821000D02*
X199809000Y-132040000D01*
X199849000Y-129960000D02*
X199849000Y-127165000D01*
X199849000Y-134835000D02*
X199849000Y-132040000D01*
X199889000Y-129960000D02*
X199889000Y-127150000D01*
X199889000Y-134850000D02*
X199889000Y-132040000D01*
X199929000Y-129960000D02*
X199929000Y-127137000D01*
X199929000Y-134863000D02*
X199929000Y-132040000D01*
X199969000Y-129960000D02*
X199969000Y-127123000D01*
X199969000Y-134877000D02*
X199969000Y-132040000D01*
X200009000Y-129960000D02*
X200009000Y-127111000D01*
X200009000Y-134889000D02*
X200009000Y-132040000D01*
X200049000Y-129960000D02*
X200049000Y-127098000D01*
X200049000Y-134902000D02*
X200049000Y-132040000D01*
X200089000Y-129960000D02*
X200089000Y-127086000D01*
X200089000Y-134914000D02*
X200089000Y-132040000D01*
X200129000Y-129960000D02*
X200129000Y-127075000D01*
X200129000Y-134925000D02*
X200129000Y-132040000D01*
X200169000Y-129960000D02*
X200169000Y-127064000D01*
X200169000Y-134936000D02*
X200169000Y-132040000D01*
X200209000Y-129960000D02*
X200209000Y-127053000D01*
X200209000Y-134947000D02*
X200209000Y-132040000D01*
X200249000Y-129960000D02*
X200249000Y-127043000D01*
X200249000Y-134957000D02*
X200249000Y-132040000D01*
X200289000Y-129960000D02*
X200289000Y-127033000D01*
X200289000Y-134967000D02*
X200289000Y-132040000D01*
X200329000Y-129960000D02*
X200329000Y-127024000D01*
X200329000Y-134976000D02*
X200329000Y-132040000D01*
X200369000Y-129960000D02*
X200369000Y-127015000D01*
X200369000Y-134985000D02*
X200369000Y-132040000D01*
X200409000Y-129960000D02*
X200409000Y-127006000D01*
X200409000Y-134994000D02*
X200409000Y-132040000D01*
X200449000Y-129960000D02*
X200449000Y-126998000D01*
X200449000Y-135002000D02*
X200449000Y-132040000D01*
X200489000Y-129960000D02*
X200489000Y-126990000D01*
X200489000Y-135010000D02*
X200489000Y-132040000D01*
X200529000Y-129960000D02*
X200529000Y-126983000D01*
X200529000Y-135017000D02*
X200529000Y-132040000D01*
X200570000Y-135024000D02*
X200570000Y-126976000D01*
X200610000Y-135030000D02*
X200610000Y-126970000D01*
X200650000Y-135037000D02*
X200650000Y-126963000D01*
X200690000Y-135042000D02*
X200690000Y-126958000D01*
X200730000Y-135048000D02*
X200730000Y-126952000D01*
X200770000Y-135052000D02*
X200770000Y-126948000D01*
X200810000Y-135057000D02*
X200810000Y-126943000D01*
X200850000Y-135061000D02*
X200850000Y-126939000D01*
X200890000Y-135065000D02*
X200890000Y-126935000D01*
X200930000Y-135068000D02*
X200930000Y-126932000D01*
X200970000Y-135071000D02*
X200970000Y-126929000D01*
X201010000Y-135074000D02*
X201010000Y-126926000D01*
X201050000Y-135076000D02*
X201050000Y-126924000D01*
X201090000Y-135077000D02*
X201090000Y-126923000D01*
X201130000Y-135079000D02*
X201130000Y-126921000D01*
X201170000Y-135080000D02*
X201170000Y-126920000D01*
X201210000Y-135080000D02*
X201210000Y-126920000D01*
X201250000Y-135080000D02*
X201250000Y-126920000D01*
X205370000Y-131000000D02*
G75*
G03*
X205370000Y-131000000I-4120000J0D01*
G01*
%TO.C,A1*%
X222400000Y-112600000D02*
X209570000Y-112600000D01*
X222400000Y-133180000D02*
X222400000Y-112600000D01*
X206900000Y-133180000D02*
X222400000Y-133180000D01*
X206900000Y-115270000D02*
X206900000Y-133180000D01*
X209570000Y-115270000D02*
X206900000Y-115270000D01*
X209570000Y-112600000D02*
X209570000Y-115270000D01*
X206900000Y-112600000D02*
X206900000Y-114000000D01*
X208300000Y-112600000D02*
X206900000Y-112600000D01*
X209570000Y-115270000D02*
X209570000Y-133180000D01*
X219730000Y-112600000D02*
X219730000Y-133180000D01*
%TO.C,TP4*%
D13*
X253726190Y-102154761D02*
X253488095Y-102321428D01*
X253726190Y-102440476D02*
X253226190Y-102440476D01*
X253226190Y-102250000D01*
X253250000Y-102202380D01*
X253273809Y-102178571D01*
X253321428Y-102154761D01*
X253392857Y-102154761D01*
X253440476Y-102178571D01*
X253464285Y-102202380D01*
X253488095Y-102250000D01*
X253488095Y-102440476D01*
X253773809Y-102059523D02*
X253773809Y-101678571D01*
X253726190Y-101559523D02*
X253226190Y-101559523D01*
X253226190Y-101440476D01*
X253250000Y-101369047D01*
X253297619Y-101321428D01*
X253345238Y-101297619D01*
X253440476Y-101273809D01*
X253511904Y-101273809D01*
X253607142Y-101297619D01*
X253654761Y-101321428D01*
X253702380Y-101369047D01*
X253726190Y-101440476D01*
X253726190Y-101559523D01*
X253726190Y-101059523D02*
X253226190Y-101059523D01*
X253726190Y-100535714D02*
X253488095Y-100702380D01*
X253726190Y-100821428D02*
X253226190Y-100821428D01*
X253226190Y-100630952D01*
X253250000Y-100583333D01*
X253273809Y-100559523D01*
X253321428Y-100535714D01*
X253392857Y-100535714D01*
X253440476Y-100559523D01*
X253464285Y-100583333D01*
X253488095Y-100630952D01*
X253488095Y-100821428D01*
%TO.C,TP3*%
X253726190Y-108940476D02*
X253488095Y-109107142D01*
X253726190Y-109226190D02*
X253226190Y-109226190D01*
X253226190Y-109035714D01*
X253250000Y-108988095D01*
X253273809Y-108964285D01*
X253321428Y-108940476D01*
X253392857Y-108940476D01*
X253440476Y-108964285D01*
X253464285Y-108988095D01*
X253488095Y-109035714D01*
X253488095Y-109226190D01*
X253773809Y-108845238D02*
X253773809Y-108464285D01*
X253702380Y-108369047D02*
X253726190Y-108297619D01*
X253726190Y-108178571D01*
X253702380Y-108130952D01*
X253678571Y-108107142D01*
X253630952Y-108083333D01*
X253583333Y-108083333D01*
X253535714Y-108107142D01*
X253511904Y-108130952D01*
X253488095Y-108178571D01*
X253464285Y-108273809D01*
X253440476Y-108321428D01*
X253416666Y-108345238D01*
X253369047Y-108369047D01*
X253321428Y-108369047D01*
X253273809Y-108345238D01*
X253250000Y-108321428D01*
X253226190Y-108273809D01*
X253226190Y-108154761D01*
X253250000Y-108083333D01*
X253226190Y-107940476D02*
X253226190Y-107654761D01*
X253726190Y-107797619D02*
X253226190Y-107797619D01*
X253464285Y-107488095D02*
X253464285Y-107321428D01*
X253726190Y-107250000D02*
X253726190Y-107488095D01*
X253226190Y-107488095D01*
X253226190Y-107250000D01*
X253726190Y-107035714D02*
X253226190Y-107035714D01*
X253226190Y-106845238D01*
X253250000Y-106797619D01*
X253273809Y-106773809D01*
X253321428Y-106750000D01*
X253392857Y-106750000D01*
X253440476Y-106773809D01*
X253464285Y-106797619D01*
X253488095Y-106845238D01*
X253488095Y-107035714D01*
%TO.C,TP2*%
X253226190Y-88476190D02*
X253226190Y-88142857D01*
X253726190Y-88476190D01*
X253726190Y-88142857D01*
X253773809Y-88071428D02*
X253773809Y-87690476D01*
X253726190Y-87571428D02*
X253226190Y-87571428D01*
X253226190Y-87452380D01*
X253250000Y-87380952D01*
X253297619Y-87333333D01*
X253345238Y-87309523D01*
X253440476Y-87285714D01*
X253511904Y-87285714D01*
X253607142Y-87309523D01*
X253654761Y-87333333D01*
X253702380Y-87380952D01*
X253726190Y-87452380D01*
X253726190Y-87571428D01*
X253726190Y-87071428D02*
X253226190Y-87071428D01*
X253726190Y-86547619D02*
X253488095Y-86714285D01*
X253726190Y-86833333D02*
X253226190Y-86833333D01*
X253226190Y-86642857D01*
X253250000Y-86595238D01*
X253273809Y-86571428D01*
X253321428Y-86547619D01*
X253392857Y-86547619D01*
X253440476Y-86571428D01*
X253464285Y-86595238D01*
X253488095Y-86642857D01*
X253488095Y-86833333D01*
%TO.C,TP1*%
X253226190Y-95261904D02*
X253226190Y-94928571D01*
X253726190Y-95261904D01*
X253726190Y-94928571D01*
X253773809Y-94857142D02*
X253773809Y-94476190D01*
X253702380Y-94380952D02*
X253726190Y-94309523D01*
X253726190Y-94190476D01*
X253702380Y-94142857D01*
X253678571Y-94119047D01*
X253630952Y-94095238D01*
X253583333Y-94095238D01*
X253535714Y-94119047D01*
X253511904Y-94142857D01*
X253488095Y-94190476D01*
X253464285Y-94285714D01*
X253440476Y-94333333D01*
X253416666Y-94357142D01*
X253369047Y-94380952D01*
X253321428Y-94380952D01*
X253273809Y-94357142D01*
X253250000Y-94333333D01*
X253226190Y-94285714D01*
X253226190Y-94166666D01*
X253250000Y-94095238D01*
X253226190Y-93952380D02*
X253226190Y-93666666D01*
X253726190Y-93809523D02*
X253226190Y-93809523D01*
X253464285Y-93500000D02*
X253464285Y-93333333D01*
X253726190Y-93261904D02*
X253726190Y-93500000D01*
X253226190Y-93500000D01*
X253226190Y-93261904D01*
X253726190Y-93047619D02*
X253226190Y-93047619D01*
X253226190Y-92857142D01*
X253250000Y-92809523D01*
X253273809Y-92785714D01*
X253321428Y-92761904D01*
X253392857Y-92761904D01*
X253440476Y-92785714D01*
X253464285Y-92809523D01*
X253488095Y-92857142D01*
X253488095Y-93047619D01*
%TO.C,J6*%
D10*
X222782380Y-139603333D02*
X223496666Y-139603333D01*
X223639523Y-139650952D01*
X223734761Y-139746190D01*
X223782380Y-139889047D01*
X223782380Y-139984285D01*
X222782380Y-138698571D02*
X222782380Y-138889047D01*
X222830000Y-138984285D01*
X222877619Y-139031904D01*
X223020476Y-139127142D01*
X223210952Y-139174761D01*
X223591904Y-139174761D01*
X223687142Y-139127142D01*
X223734761Y-139079523D01*
X223782380Y-138984285D01*
X223782380Y-138793809D01*
X223734761Y-138698571D01*
X223687142Y-138650952D01*
X223591904Y-138603333D01*
X223353809Y-138603333D01*
X223258571Y-138650952D01*
X223210952Y-138698571D01*
X223163333Y-138793809D01*
X223163333Y-138984285D01*
X223210952Y-139079523D01*
X223258571Y-139127142D01*
X223353809Y-139174761D01*
%TO.C,H6*%
X254585714Y-71738095D02*
X255252380Y-72357142D01*
X255252380Y-72119047D02*
X255204761Y-72214285D01*
X255157142Y-72261904D01*
X255061904Y-72309523D01*
X254776190Y-72309523D01*
X254680952Y-72261904D01*
X254633333Y-72214285D01*
X254585714Y-72119047D01*
X254585714Y-71976190D01*
X254633333Y-71880952D01*
X254680952Y-71833333D01*
X254776190Y-71785714D01*
X255061904Y-71785714D01*
X255157142Y-71833333D01*
X255204761Y-71880952D01*
X255252380Y-71976190D01*
X255252380Y-72119047D01*
X255252380Y-71357142D02*
X254252380Y-71357142D01*
X254966666Y-71023809D01*
X254252380Y-70690476D01*
X255252380Y-70690476D01*
X254252380Y-70309523D02*
X254252380Y-69690476D01*
X254633333Y-70023809D01*
X254633333Y-69880952D01*
X254680952Y-69785714D01*
X254728571Y-69738095D01*
X254823809Y-69690476D01*
X255061904Y-69690476D01*
X255157142Y-69738095D01*
X255204761Y-69785714D01*
X255252380Y-69880952D01*
X255252380Y-70166666D01*
X255204761Y-70261904D01*
X255157142Y-70309523D01*
%TO.C,H5*%
X258261904Y-135585714D02*
X257642857Y-136252380D01*
X257880952Y-136252380D02*
X257785714Y-136204761D01*
X257738095Y-136157142D01*
X257690476Y-136061904D01*
X257690476Y-135776190D01*
X257738095Y-135680952D01*
X257785714Y-135633333D01*
X257880952Y-135585714D01*
X258023809Y-135585714D01*
X258119047Y-135633333D01*
X258166666Y-135680952D01*
X258214285Y-135776190D01*
X258214285Y-136061904D01*
X258166666Y-136157142D01*
X258119047Y-136204761D01*
X258023809Y-136252380D01*
X257880952Y-136252380D01*
X258642857Y-136252380D02*
X258642857Y-135252380D01*
X258976190Y-135966666D01*
X259309523Y-135252380D01*
X259309523Y-136252380D01*
X259690476Y-135252380D02*
X260309523Y-135252380D01*
X259976190Y-135633333D01*
X260119047Y-135633333D01*
X260214285Y-135680952D01*
X260261904Y-135728571D01*
X260309523Y-135823809D01*
X260309523Y-136061904D01*
X260261904Y-136157142D01*
X260214285Y-136204761D01*
X260119047Y-136252380D01*
X259833333Y-136252380D01*
X259738095Y-136204761D01*
X259690476Y-136157142D01*
%TO.C,H4*%
X200261904Y-74985714D02*
X199642857Y-75652380D01*
X199880952Y-75652380D02*
X199785714Y-75604761D01*
X199738095Y-75557142D01*
X199690476Y-75461904D01*
X199690476Y-75176190D01*
X199738095Y-75080952D01*
X199785714Y-75033333D01*
X199880952Y-74985714D01*
X200023809Y-74985714D01*
X200119047Y-75033333D01*
X200166666Y-75080952D01*
X200214285Y-75176190D01*
X200214285Y-75461904D01*
X200166666Y-75557142D01*
X200119047Y-75604761D01*
X200023809Y-75652380D01*
X199880952Y-75652380D01*
X200642857Y-75652380D02*
X200642857Y-74652380D01*
X200976190Y-75366666D01*
X201309523Y-74652380D01*
X201309523Y-75652380D01*
X201690476Y-74652380D02*
X202309523Y-74652380D01*
X201976190Y-75033333D01*
X202119047Y-75033333D01*
X202214285Y-75080952D01*
X202261904Y-75128571D01*
X202309523Y-75223809D01*
X202309523Y-75461904D01*
X202261904Y-75557142D01*
X202214285Y-75604761D01*
X202119047Y-75652380D01*
X201833333Y-75652380D01*
X201738095Y-75604761D01*
X201690476Y-75557142D01*
%TO.C,H3*%
X204985714Y-140738095D02*
X205652380Y-141357142D01*
X205652380Y-141119047D02*
X205604761Y-141214285D01*
X205557142Y-141261904D01*
X205461904Y-141309523D01*
X205176190Y-141309523D01*
X205080952Y-141261904D01*
X205033333Y-141214285D01*
X204985714Y-141119047D01*
X204985714Y-140976190D01*
X205033333Y-140880952D01*
X205080952Y-140833333D01*
X205176190Y-140785714D01*
X205461904Y-140785714D01*
X205557142Y-140833333D01*
X205604761Y-140880952D01*
X205652380Y-140976190D01*
X205652380Y-141119047D01*
X205652380Y-140357142D02*
X204652380Y-140357142D01*
X205366666Y-140023809D01*
X204652380Y-139690476D01*
X205652380Y-139690476D01*
X204652380Y-139309523D02*
X204652380Y-138690476D01*
X205033333Y-139023809D01*
X205033333Y-138880952D01*
X205080952Y-138785714D01*
X205128571Y-138738095D01*
X205223809Y-138690476D01*
X205461904Y-138690476D01*
X205557142Y-138738095D01*
X205604761Y-138785714D01*
X205652380Y-138880952D01*
X205652380Y-139166666D01*
X205604761Y-139261904D01*
X205557142Y-139309523D01*
%TO.C,H2*%
X246238095Y-79200000D02*
X246142857Y-79152380D01*
X246000000Y-79152380D01*
X245857142Y-79200000D01*
X245761904Y-79295238D01*
X245714285Y-79390476D01*
X245666666Y-79580952D01*
X245666666Y-79723809D01*
X245714285Y-79914285D01*
X245761904Y-80009523D01*
X245857142Y-80104761D01*
X246000000Y-80152380D01*
X246095238Y-80152380D01*
X246238095Y-80104761D01*
X246285714Y-80057142D01*
X246285714Y-79723809D01*
X246095238Y-79723809D01*
X246714285Y-80152380D02*
X246714285Y-79152380D01*
X247285714Y-80152380D01*
X247285714Y-79152380D01*
X247761904Y-80152380D02*
X247761904Y-79152380D01*
X248000000Y-79152380D01*
X248142857Y-79200000D01*
X248238095Y-79295238D01*
X248285714Y-79390476D01*
X248333333Y-79580952D01*
X248333333Y-79723809D01*
X248285714Y-79914285D01*
X248238095Y-80009523D01*
X248142857Y-80104761D01*
X248000000Y-80152380D01*
X247761904Y-80152380D01*
%TO.C,H1*%
X220190476Y-79771428D02*
X220952380Y-79771428D01*
X220571428Y-80152380D02*
X220571428Y-79390476D01*
X221285714Y-79152380D02*
X221619047Y-80152380D01*
X221952380Y-79152380D01*
X222285714Y-80152380D02*
X222285714Y-79152380D01*
X222523809Y-79152380D01*
X222666666Y-79200000D01*
X222761904Y-79295238D01*
X222809523Y-79390476D01*
X222857142Y-79580952D01*
X222857142Y-79723809D01*
X222809523Y-79914285D01*
X222761904Y-80009523D01*
X222666666Y-80104761D01*
X222523809Y-80152380D01*
X222285714Y-80152380D01*
X223857142Y-80057142D02*
X223809523Y-80104761D01*
X223666666Y-80152380D01*
X223571428Y-80152380D01*
X223428571Y-80104761D01*
X223333333Y-80009523D01*
X223285714Y-79914285D01*
X223238095Y-79723809D01*
X223238095Y-79580952D01*
X223285714Y-79390476D01*
X223333333Y-79295238D01*
X223428571Y-79200000D01*
X223571428Y-79152380D01*
X223666666Y-79152380D01*
X223809523Y-79200000D01*
X223857142Y-79247619D01*
%TO.C,M2*%
X200452380Y-85333333D02*
X200452380Y-84666666D01*
X201452380Y-85333333D01*
X201452380Y-84666666D01*
X200452380Y-90000000D02*
X200690476Y-90000000D01*
X200595238Y-90238095D02*
X200690476Y-90000000D01*
X200595238Y-89761904D01*
X200880952Y-90142857D02*
X200690476Y-90000000D01*
X200880952Y-89857142D01*
%TO.C,M1*%
X201452380Y-110690477D02*
X200976190Y-111023810D01*
X201452380Y-111261905D02*
X200452380Y-111261905D01*
X200452380Y-110880953D01*
X200500000Y-110785715D01*
X200547619Y-110738096D01*
X200642857Y-110690477D01*
X200785714Y-110690477D01*
X200880952Y-110738096D01*
X200928571Y-110785715D01*
X200976190Y-110880953D01*
X200976190Y-111261905D01*
X200452380Y-116000000D02*
X200690476Y-116000000D01*
X200595238Y-116238095D02*
X200690476Y-116000000D01*
X200595238Y-115761904D01*
X200880952Y-116142857D02*
X200690476Y-116000000D01*
X200880952Y-115857142D01*
%TO.C,J1*%
X208023809Y-79071428D02*
X208785714Y-79071428D01*
X210023809Y-79452380D02*
X210023809Y-78452380D01*
X210404761Y-78452380D01*
X210500000Y-78500000D01*
X210547619Y-78547619D01*
X210595238Y-78642857D01*
X210595238Y-78785714D01*
X210547619Y-78880952D01*
X210500000Y-78928571D01*
X210404761Y-78976190D01*
X210023809Y-78976190D01*
X211166666Y-79452380D02*
X211071428Y-79404761D01*
X211023809Y-79357142D01*
X210976190Y-79261904D01*
X210976190Y-78976190D01*
X211023809Y-78880952D01*
X211071428Y-78833333D01*
X211166666Y-78785714D01*
X211309523Y-78785714D01*
X211404761Y-78833333D01*
X211452380Y-78880952D01*
X211500000Y-78976190D01*
X211500000Y-79261904D01*
X211452380Y-79357142D01*
X211404761Y-79404761D01*
X211309523Y-79452380D01*
X211166666Y-79452380D01*
X211833333Y-78785714D02*
X212023809Y-79452380D01*
X212214285Y-78976190D01*
X212404761Y-79452380D01*
X212595238Y-78785714D01*
X213357142Y-79404761D02*
X213261904Y-79452380D01*
X213071428Y-79452380D01*
X212976190Y-79404761D01*
X212928571Y-79309523D01*
X212928571Y-78928571D01*
X212976190Y-78833333D01*
X213071428Y-78785714D01*
X213261904Y-78785714D01*
X213357142Y-78833333D01*
X213404761Y-78928571D01*
X213404761Y-79023809D01*
X212928571Y-79119047D01*
X213833333Y-79452380D02*
X213833333Y-78785714D01*
X213833333Y-78976190D02*
X213880952Y-78880952D01*
X213928571Y-78833333D01*
X214023809Y-78785714D01*
X214119047Y-78785714D01*
X215214285Y-79071428D02*
X215976190Y-79071428D01*
X215595238Y-79452380D02*
X215595238Y-78690476D01*
X210452380Y-75000000D02*
X210690476Y-75000000D01*
X210595238Y-75238095D02*
X210690476Y-75000000D01*
X210595238Y-74761904D01*
X210880952Y-75142857D02*
X210690476Y-75000000D01*
X210880952Y-74857142D01*
%TO.C,J5*%
X254724286Y-114698047D02*
X255390953Y-114698047D01*
X254724286Y-115698047D01*
X255390953Y-115698047D01*
X256533810Y-115698047D02*
X256533810Y-114698047D01*
X256533810Y-115174238D02*
X257105239Y-115174238D01*
X257105239Y-115698047D02*
X257105239Y-114698047D01*
X257724286Y-115698047D02*
X257629048Y-115650428D01*
X257581429Y-115602809D01*
X257533810Y-115507571D01*
X257533810Y-115221857D01*
X257581429Y-115126619D01*
X257629048Y-115079000D01*
X257724286Y-115031381D01*
X257867143Y-115031381D01*
X257962381Y-115079000D01*
X258010001Y-115126619D01*
X258057620Y-115221857D01*
X258057620Y-115507571D01*
X258010001Y-115602809D01*
X257962381Y-115650428D01*
X257867143Y-115698047D01*
X257724286Y-115698047D01*
X258486191Y-115698047D02*
X258486191Y-115031381D01*
X258486191Y-115126619D02*
X258533810Y-115079000D01*
X258629048Y-115031381D01*
X258771905Y-115031381D01*
X258867143Y-115079000D01*
X258914762Y-115174238D01*
X258914762Y-115698047D01*
X258914762Y-115174238D02*
X258962381Y-115079000D01*
X259057620Y-115031381D01*
X259200477Y-115031381D01*
X259295715Y-115079000D01*
X259343334Y-115174238D01*
X259343334Y-115698047D01*
X260200477Y-115650428D02*
X260105239Y-115698047D01*
X259914762Y-115698047D01*
X259819524Y-115650428D01*
X259771905Y-115555190D01*
X259771905Y-115174238D01*
X259819524Y-115079000D01*
X259914762Y-115031381D01*
X260105239Y-115031381D01*
X260200477Y-115079000D01*
X260248096Y-115174238D01*
X260248096Y-115269476D01*
X259771905Y-115364714D01*
X256962381Y-109500000D02*
X257200477Y-109500000D01*
X257105239Y-109738095D02*
X257200477Y-109500000D01*
X257105239Y-109261904D01*
X257390953Y-109642857D02*
X257200477Y-109500000D01*
X257390953Y-109357142D01*
%TO.C,J4*%
X255367143Y-101943714D02*
X255033810Y-101467524D01*
X254795715Y-101943714D02*
X254795715Y-100943714D01*
X255176667Y-100943714D01*
X255271905Y-100991334D01*
X255319524Y-101038953D01*
X255367143Y-101134191D01*
X255367143Y-101277048D01*
X255319524Y-101372286D01*
X255271905Y-101419905D01*
X255176667Y-101467524D01*
X254795715Y-101467524D01*
X256557620Y-101943714D02*
X256557620Y-100943714D01*
X256557620Y-101419905D02*
X257129048Y-101419905D01*
X257129048Y-101943714D02*
X257129048Y-100943714D01*
X257748096Y-101943714D02*
X257652858Y-101896095D01*
X257605239Y-101848476D01*
X257557620Y-101753238D01*
X257557620Y-101467524D01*
X257605239Y-101372286D01*
X257652858Y-101324667D01*
X257748096Y-101277048D01*
X257890953Y-101277048D01*
X257986191Y-101324667D01*
X258033810Y-101372286D01*
X258081429Y-101467524D01*
X258081429Y-101753238D01*
X258033810Y-101848476D01*
X257986191Y-101896095D01*
X257890953Y-101943714D01*
X257748096Y-101943714D01*
X258510001Y-101943714D02*
X258510001Y-101277048D01*
X258510001Y-101372286D02*
X258557620Y-101324667D01*
X258652858Y-101277048D01*
X258795715Y-101277048D01*
X258890953Y-101324667D01*
X258938572Y-101419905D01*
X258938572Y-101943714D01*
X258938572Y-101419905D02*
X258986191Y-101324667D01*
X259081429Y-101277048D01*
X259224286Y-101277048D01*
X259319524Y-101324667D01*
X259367143Y-101419905D01*
X259367143Y-101943714D01*
X260224286Y-101896095D02*
X260129048Y-101943714D01*
X259938572Y-101943714D01*
X259843334Y-101896095D01*
X259795715Y-101800857D01*
X259795715Y-101419905D01*
X259843334Y-101324667D01*
X259938572Y-101277048D01*
X260129048Y-101277048D01*
X260224286Y-101324667D01*
X260271905Y-101419905D01*
X260271905Y-101515143D01*
X259795715Y-101610381D01*
X256962381Y-96000000D02*
X257200477Y-96000000D01*
X257105239Y-96238095D02*
X257200477Y-96000000D01*
X257105239Y-95761904D01*
X257390953Y-96142857D02*
X257200477Y-96000000D01*
X257390953Y-95857142D01*
%TO.C,J3*%
X255129048Y-129452380D02*
X255129048Y-128452380D01*
X255510001Y-128452380D01*
X255605239Y-128500000D01*
X255652858Y-128547619D01*
X255700477Y-128642857D01*
X255700477Y-128785714D01*
X255652858Y-128880952D01*
X255605239Y-128928571D01*
X255510001Y-128976190D01*
X255129048Y-128976190D01*
X256129048Y-129452380D02*
X256129048Y-128785714D01*
X256129048Y-128452380D02*
X256081429Y-128500000D01*
X256129048Y-128547619D01*
X256176667Y-128500000D01*
X256129048Y-128452380D01*
X256129048Y-128547619D01*
X256605239Y-128785714D02*
X256605239Y-129785714D01*
X256605239Y-128833333D02*
X256700477Y-128785714D01*
X256890953Y-128785714D01*
X256986191Y-128833333D01*
X257033810Y-128880952D01*
X257081429Y-128976190D01*
X257081429Y-129261904D01*
X257033810Y-129357142D01*
X256986191Y-129404761D01*
X256890953Y-129452380D01*
X256700477Y-129452380D01*
X256605239Y-129404761D01*
X257890953Y-129404761D02*
X257795715Y-129452380D01*
X257605239Y-129452380D01*
X257510001Y-129404761D01*
X257462381Y-129309523D01*
X257462381Y-128928571D01*
X257510001Y-128833333D01*
X257605239Y-128785714D01*
X257795715Y-128785714D01*
X257890953Y-128833333D01*
X257938572Y-128928571D01*
X257938572Y-129023809D01*
X257462381Y-129119047D01*
X258224286Y-128785714D02*
X258605239Y-128785714D01*
X258367143Y-128452380D02*
X258367143Y-129309523D01*
X258414762Y-129404761D01*
X258510001Y-129452380D01*
X258605239Y-129452380D01*
X258795715Y-128785714D02*
X259176667Y-128785714D01*
X258938572Y-128452380D02*
X258938572Y-129309523D01*
X258986191Y-129404761D01*
X259081429Y-129452380D01*
X259176667Y-129452380D01*
X259890953Y-129404761D02*
X259795715Y-129452380D01*
X259605239Y-129452380D01*
X259510001Y-129404761D01*
X259462381Y-129309523D01*
X259462381Y-128928571D01*
X259510001Y-128833333D01*
X259605239Y-128785714D01*
X259795715Y-128785714D01*
X259890953Y-128833333D01*
X259938572Y-128928571D01*
X259938572Y-129023809D01*
X259462381Y-129119047D01*
X256962381Y-123000000D02*
X257200477Y-123000000D01*
X257105239Y-123238095D02*
X257200477Y-123000000D01*
X257105239Y-122761904D01*
X257390953Y-123142857D02*
X257200477Y-123000000D01*
X257390953Y-122857142D01*
%TO.C,A2*%
X209316666Y-107842380D02*
X209983333Y-107842380D01*
X209316666Y-108842380D01*
X209983333Y-108842380D01*
X211126190Y-108842380D02*
X211126190Y-107842380D01*
X211459523Y-108556666D01*
X211792857Y-107842380D01*
X211792857Y-108842380D01*
X212411904Y-108842380D02*
X212316666Y-108794761D01*
X212269047Y-108747142D01*
X212221428Y-108651904D01*
X212221428Y-108366190D01*
X212269047Y-108270952D01*
X212316666Y-108223333D01*
X212411904Y-108175714D01*
X212554761Y-108175714D01*
X212650000Y-108223333D01*
X212697619Y-108270952D01*
X212745238Y-108366190D01*
X212745238Y-108651904D01*
X212697619Y-108747142D01*
X212650000Y-108794761D01*
X212554761Y-108842380D01*
X212411904Y-108842380D01*
X213030952Y-108175714D02*
X213411904Y-108175714D01*
X213173809Y-107842380D02*
X213173809Y-108699523D01*
X213221428Y-108794761D01*
X213316666Y-108842380D01*
X213411904Y-108842380D01*
X213888095Y-108842380D02*
X213792857Y-108794761D01*
X213745238Y-108747142D01*
X213697619Y-108651904D01*
X213697619Y-108366190D01*
X213745238Y-108270952D01*
X213792857Y-108223333D01*
X213888095Y-108175714D01*
X214030952Y-108175714D01*
X214126190Y-108223333D01*
X214173809Y-108270952D01*
X214221428Y-108366190D01*
X214221428Y-108651904D01*
X214173809Y-108747142D01*
X214126190Y-108794761D01*
X214030952Y-108842380D01*
X213888095Y-108842380D01*
X214650000Y-108842380D02*
X214650000Y-108175714D01*
X214650000Y-108366190D02*
X214697619Y-108270952D01*
X214745238Y-108223333D01*
X214840476Y-108175714D01*
X214935714Y-108175714D01*
X216030952Y-108842380D02*
X216030952Y-107842380D01*
X216269047Y-107842380D01*
X216411904Y-107890000D01*
X216507142Y-107985238D01*
X216554761Y-108080476D01*
X216602380Y-108270952D01*
X216602380Y-108413809D01*
X216554761Y-108604285D01*
X216507142Y-108699523D01*
X216411904Y-108794761D01*
X216269047Y-108842380D01*
X216030952Y-108842380D01*
X217030952Y-108842380D02*
X217030952Y-108175714D01*
X217030952Y-108366190D02*
X217078571Y-108270952D01*
X217126190Y-108223333D01*
X217221428Y-108175714D01*
X217316666Y-108175714D01*
X217650000Y-108842380D02*
X217650000Y-108175714D01*
X217650000Y-107842380D02*
X217602380Y-107890000D01*
X217650000Y-107937619D01*
X217697619Y-107890000D01*
X217650000Y-107842380D01*
X217650000Y-107937619D01*
X218030952Y-108175714D02*
X218269047Y-108842380D01*
X218507142Y-108175714D01*
X219269047Y-108794761D02*
X219173809Y-108842380D01*
X218983333Y-108842380D01*
X218888095Y-108794761D01*
X218840476Y-108699523D01*
X218840476Y-108318571D01*
X218888095Y-108223333D01*
X218983333Y-108175714D01*
X219173809Y-108175714D01*
X219269047Y-108223333D01*
X219316666Y-108318571D01*
X219316666Y-108413809D01*
X218840476Y-108509047D01*
X219745238Y-108842380D02*
X219745238Y-108175714D01*
X219745238Y-108366190D02*
X219792857Y-108270952D01*
X219840476Y-108223333D01*
X219935714Y-108175714D01*
X220030952Y-108175714D01*
%TO.C,U1*%
X226237801Y-84452169D02*
X226237801Y-85262005D01*
X226285438Y-85357280D01*
X226333076Y-85404918D01*
X226428350Y-85452555D01*
X226618900Y-85452555D01*
X226714175Y-85404918D01*
X226761812Y-85357280D01*
X226809450Y-85262005D01*
X226809450Y-84452169D01*
X227809836Y-85452555D02*
X227238187Y-85452555D01*
X227524011Y-85452555D02*
X227524011Y-84452169D01*
X227428736Y-84595081D01*
X227333462Y-84690356D01*
X227238187Y-84737994D01*
%TO.C,J2*%
X234909880Y-70333333D02*
X235624166Y-70333333D01*
X235767023Y-70380952D01*
X235862261Y-70476190D01*
X235909880Y-70619047D01*
X235909880Y-70714285D01*
X235005119Y-69904761D02*
X234957500Y-69857142D01*
X234909880Y-69761904D01*
X234909880Y-69523809D01*
X234957500Y-69428571D01*
X235005119Y-69380952D01*
X235100357Y-69333333D01*
X235195595Y-69333333D01*
X235338452Y-69380952D01*
X235909880Y-69952380D01*
X235909880Y-69333333D01*
%TO.C,C2*%
X202833333Y-107357142D02*
X202785714Y-107404761D01*
X202642857Y-107452380D01*
X202547619Y-107452380D01*
X202404761Y-107404761D01*
X202309523Y-107309523D01*
X202261904Y-107214285D01*
X202214285Y-107023809D01*
X202214285Y-106880952D01*
X202261904Y-106690476D01*
X202309523Y-106595238D01*
X202404761Y-106500000D01*
X202547619Y-106452380D01*
X202642857Y-106452380D01*
X202785714Y-106500000D01*
X202833333Y-106547619D01*
X203214285Y-106547619D02*
X203261904Y-106500000D01*
X203357142Y-106452380D01*
X203595238Y-106452380D01*
X203690476Y-106500000D01*
X203738095Y-106547619D01*
X203785714Y-106642857D01*
X203785714Y-106738095D01*
X203738095Y-106880952D01*
X203166666Y-107452380D01*
X203785714Y-107452380D01*
%TO.C,C1*%
X202833333Y-133357142D02*
X202785714Y-133404761D01*
X202642857Y-133452380D01*
X202547619Y-133452380D01*
X202404761Y-133404761D01*
X202309523Y-133309523D01*
X202261904Y-133214285D01*
X202214285Y-133023809D01*
X202214285Y-132880952D01*
X202261904Y-132690476D01*
X202309523Y-132595238D01*
X202404761Y-132500000D01*
X202547619Y-132452380D01*
X202642857Y-132452380D01*
X202785714Y-132500000D01*
X202833333Y-132547619D01*
X203785714Y-133452380D02*
X203214285Y-133452380D01*
X203500000Y-133452380D02*
X203500000Y-132452380D01*
X203404761Y-132595238D01*
X203309523Y-132690476D01*
X203214285Y-132738095D01*
%TO.C,A1*%
X209959523Y-134622380D02*
X209626190Y-134146190D01*
X209388095Y-134622380D02*
X209388095Y-133622380D01*
X209769047Y-133622380D01*
X209864285Y-133670000D01*
X209911904Y-133717619D01*
X209959523Y-133812857D01*
X209959523Y-133955714D01*
X209911904Y-134050952D01*
X209864285Y-134098571D01*
X209769047Y-134146190D01*
X209388095Y-134146190D01*
X211150000Y-134622380D02*
X211150000Y-133622380D01*
X211483333Y-134336666D01*
X211816666Y-133622380D01*
X211816666Y-134622380D01*
X212435714Y-134622380D02*
X212340476Y-134574761D01*
X212292857Y-134527142D01*
X212245238Y-134431904D01*
X212245238Y-134146190D01*
X212292857Y-134050952D01*
X212340476Y-134003333D01*
X212435714Y-133955714D01*
X212578571Y-133955714D01*
X212673809Y-134003333D01*
X212721428Y-134050952D01*
X212769047Y-134146190D01*
X212769047Y-134431904D01*
X212721428Y-134527142D01*
X212673809Y-134574761D01*
X212578571Y-134622380D01*
X212435714Y-134622380D01*
X213054761Y-133955714D02*
X213435714Y-133955714D01*
X213197619Y-133622380D02*
X213197619Y-134479523D01*
X213245238Y-134574761D01*
X213340476Y-134622380D01*
X213435714Y-134622380D01*
X213911904Y-134622380D02*
X213816666Y-134574761D01*
X213769047Y-134527142D01*
X213721428Y-134431904D01*
X213721428Y-134146190D01*
X213769047Y-134050952D01*
X213816666Y-134003333D01*
X213911904Y-133955714D01*
X214054761Y-133955714D01*
X214150000Y-134003333D01*
X214197619Y-134050952D01*
X214245238Y-134146190D01*
X214245238Y-134431904D01*
X214197619Y-134527142D01*
X214150000Y-134574761D01*
X214054761Y-134622380D01*
X213911904Y-134622380D01*
X214673809Y-134622380D02*
X214673809Y-133955714D01*
X214673809Y-134146190D02*
X214721428Y-134050952D01*
X214769047Y-134003333D01*
X214864285Y-133955714D01*
X214959523Y-133955714D01*
X216054761Y-134622380D02*
X216054761Y-133622380D01*
X216292857Y-133622380D01*
X216435714Y-133670000D01*
X216530952Y-133765238D01*
X216578571Y-133860476D01*
X216626190Y-134050952D01*
X216626190Y-134193809D01*
X216578571Y-134384285D01*
X216530952Y-134479523D01*
X216435714Y-134574761D01*
X216292857Y-134622380D01*
X216054761Y-134622380D01*
X217054761Y-134622380D02*
X217054761Y-133955714D01*
X217054761Y-134146190D02*
X217102380Y-134050952D01*
X217150000Y-134003333D01*
X217245238Y-133955714D01*
X217340476Y-133955714D01*
X217673809Y-134622380D02*
X217673809Y-133955714D01*
X217673809Y-133622380D02*
X217626190Y-133670000D01*
X217673809Y-133717619D01*
X217721428Y-133670000D01*
X217673809Y-133622380D01*
X217673809Y-133717619D01*
X218054761Y-133955714D02*
X218292857Y-134622380D01*
X218530952Y-133955714D01*
X219292857Y-134574761D02*
X219197619Y-134622380D01*
X219007142Y-134622380D01*
X218911904Y-134574761D01*
X218864285Y-134479523D01*
X218864285Y-134098571D01*
X218911904Y-134003333D01*
X219007142Y-133955714D01*
X219197619Y-133955714D01*
X219292857Y-134003333D01*
X219340476Y-134098571D01*
X219340476Y-134193809D01*
X218864285Y-134289047D01*
X219769047Y-134622380D02*
X219769047Y-133955714D01*
X219769047Y-134146190D02*
X219816666Y-134050952D01*
X219864285Y-134003333D01*
X219959523Y-133955714D01*
X220054761Y-133955714D01*
%TD*%
M02*
