M48
; DRILL file {KiCad 5.1.10} date Sat Aug 28 10:57:07 2021
; FORMAT={-:-/ absolute / inch / decimal}
; #@! TF.CreationDate,2021-08-28T10:57:07+12:00
; #@! TF.GenerationSoftware,Kicad,Pcbnew,5.1.10
FMAT,2
INCH
T1C0.0157
T2C0.0197
T3C0.0315
T4C0.0394
T5C0.0409
T6C0.1260
T7C0.1457
%
G90
G05
T1
X7.8346Y-3.0315
X7.8346Y-3.189
X7.8346Y-3.3465
X7.8346Y-4.2913
X7.8346Y-4.4488
X7.8346Y-4.9213
X7.9921Y-3.0315
X7.9921Y-3.189
X7.9921Y-3.3465
X7.9921Y-4.4488
X7.9921Y-4.9213
X8.1496Y-2.7165
X8.1496Y-2.874
X8.1496Y-3.0315
X8.1496Y-3.189
X8.1496Y-3.3465
X8.1496Y-4.2913
X8.3071Y-2.7165
X8.4646Y-2.7165
X8.4646Y-3.189
X8.4646Y-3.3465
X8.4646Y-3.5039
X8.4646Y-3.6614
X8.4646Y-3.8189
X8.4646Y-3.9764
X8.4646Y-4.1339
X8.4646Y-4.2913
X8.4646Y-4.4488
X8.4646Y-4.6063
X8.4646Y-4.7638
X8.4646Y-4.9213
X8.4646Y-5.0787
X8.4646Y-5.2362
X8.622Y-2.7165
X8.622Y-3.189
X8.622Y-3.3465
X8.622Y-3.5039
X8.622Y-3.6614
X8.622Y-3.9764
X8.622Y-4.7638
X8.622Y-5.0787
X8.7795Y-2.7165
X8.7795Y-3.189
X8.7795Y-3.3465
X8.8746Y-5.6138
X8.937Y-2.7165
X8.937Y-2.874
X8.937Y-3.3465
X8.9503Y-5.5645
X8.9764Y-3.7795
X8.9764Y-3.937
X8.9764Y-4.0945
X9.0157Y-4.5669
X9.071Y-5.4884
X9.073Y-4.5491
X9.0945Y-2.7165
X9.0945Y-2.874
X9.0945Y-3.3465
X9.0945Y-3.5039
X9.0945Y-5.6299
X9.1339Y-3.7795
X9.1339Y-3.937
X9.1339Y-4.0945
X9.1339Y-4.252
X9.1339Y-4.5669
X9.1359Y-5.5147
X9.1496Y-4.6063
X9.252Y-2.7165
X9.252Y-3.3465
X9.252Y-3.5039
X9.252Y-4.6063
X9.252Y-4.7638
X9.252Y-4.9213
X9.252Y-5.0787
X9.252Y-5.315
X9.252Y-5.4724
X9.252Y-5.6299
X9.2913Y-3.7795
X9.2913Y-3.937
X9.2913Y-4.0945
X9.2913Y-4.252
X9.4094Y-2.7165
X9.4094Y-2.874
X9.4094Y-3.0315
X9.4094Y-3.189
X9.4094Y-3.3465
X9.4094Y-3.5039
X9.4094Y-4.6063
X9.4094Y-4.7638
X9.4094Y-4.9213
X9.4094Y-5.0787
X9.4094Y-5.315
X9.4094Y-5.4724
X9.4094Y-5.6299
X9.4488Y-3.7795
X9.4488Y-3.937
X9.4488Y-4.0945
X9.4488Y-4.252
X9.5669Y-2.7165
X9.5669Y-3.189
X9.5669Y-3.3465
X9.5669Y-3.5039
X9.5669Y-4.6063
X9.5669Y-4.7638
X9.5669Y-4.9213
X9.5669Y-5.0787
X9.5669Y-5.315
X9.5669Y-5.4724
X9.5669Y-5.6299
X9.6063Y-3.7795
X9.6063Y-3.937
X9.6063Y-4.0945
X9.6063Y-4.252
X9.7244Y-2.7165
X9.7244Y-3.189
X9.7244Y-3.3465
X9.7244Y-3.5039
X9.7244Y-4.6063
X9.7244Y-4.7638
X9.7244Y-4.9213
X9.7244Y-5.0787
X9.7244Y-5.315
X9.7244Y-5.4724
X9.7244Y-5.6299
X9.7638Y-3.7795
X9.7638Y-3.937
X9.7638Y-4.0945
X9.7638Y-4.252
X9.8819Y-2.7165
X9.8819Y-3.189
X9.8819Y-3.3465
X9.8819Y-5.4724
X9.8819Y-5.6299
X10.0394Y-2.7165
X10.0394Y-3.0315
X10.0394Y-3.189
X10.0394Y-3.3465
X10.0394Y-3.5039
X10.0394Y-4.0945
X10.0394Y-4.6063
X10.0394Y-5.315
X10.0394Y-5.6299
X10.1969Y-3.0315
X10.1969Y-3.189
X10.1969Y-3.3465
X10.1969Y-3.5039
X10.1969Y-4.0945
X10.1969Y-4.6063
X10.1969Y-5.315
T2
X7.8189Y-2.7953
X7.8189Y-5.5118
X7.8466Y-2.7285
X7.8466Y-2.8621
X7.8466Y-5.445
X7.8466Y-5.5786
X7.9134Y-2.7008
X7.9134Y-2.8898
X7.9134Y-5.4173
X7.9134Y-5.6063
X7.9802Y-2.7285
X7.9802Y-2.8621
X7.9802Y-5.445
X7.9802Y-5.5786
X8.0079Y-2.7953
X8.0079Y-5.5118
X8.6309Y-2.9528
X8.6629Y-2.8755
X8.6629Y-3.03
X8.7402Y-2.8435
X8.7402Y-3.062
X8.8174Y-2.8755
X8.8174Y-3.03
X8.8494Y-2.9528
X9.6152Y-2.9528
X9.6472Y-2.8755
X9.6472Y-3.03
X9.7244Y-2.8435
X9.7244Y-3.062
X9.8017Y-2.8755
X9.8017Y-3.03
X9.8337Y-2.9528
X10.1024Y-2.7953
X10.1024Y-5.5118
X10.13Y-2.7285
X10.13Y-2.8621
X10.13Y-5.445
X10.13Y-5.5786
X10.1969Y-2.7008
X10.1969Y-2.8898
X10.1969Y-5.4173
X10.1969Y-5.6063
X10.2637Y-2.7285
X10.2637Y-2.8621
X10.2637Y-5.445
X10.2637Y-5.5786
X10.2913Y-2.7953
X10.2913Y-5.5118
T3
X7.8543Y-4.1339
X7.8543Y-5.1575
X7.9134Y-3.5433
X7.9134Y-3.622
X7.9134Y-3.7008
X7.9134Y-3.7795
X7.9134Y-4.5669
X7.9134Y-4.6457
X7.9134Y-4.7244
X7.9134Y-4.8031
X7.9921Y-4.1339
X7.9921Y-5.1575
X8.2008Y-3.4732
X8.2008Y-3.5732
X8.2008Y-3.6732
X8.2008Y-3.7732
X8.2008Y-3.8732
X8.2008Y-3.9732
X8.2008Y-4.0732
X8.2008Y-4.1732
X8.2008Y-4.4882
X8.2008Y-4.5882
X8.2008Y-4.6882
X8.2008Y-4.7882
X8.2008Y-4.8882
X8.2008Y-4.9882
X8.2008Y-5.0882
X8.2008Y-5.1882
X8.3071Y-2.9528
X8.3858Y-2.9528
X8.7008Y-3.4732
X8.7008Y-3.5732
X8.7008Y-3.6732
X8.7008Y-3.7732
X8.7008Y-3.8732
X8.7008Y-3.9732
X8.7008Y-4.0732
X8.7008Y-4.1732
X8.7008Y-4.4882
X8.7008Y-4.5882
X8.7008Y-4.6882
X8.7008Y-4.7882
X8.7008Y-4.8882
X8.7008Y-4.9882
X8.7008Y-5.0882
X8.7008Y-5.1882
X10.1382Y-3.7795
X10.1382Y-3.8583
X10.1382Y-4.311
X10.1382Y-4.3898
X10.1382Y-4.8425
X10.1382Y-4.9213
T4
X8.3008Y-5.4331
X8.3008Y-5.5331
X8.4008Y-5.4331
X8.4008Y-5.5331
X8.5008Y-5.4331
X8.5008Y-5.5331
X8.6008Y-5.4331
X8.6008Y-5.5331
X8.7008Y-5.4331
X8.7008Y-5.5331
T5
X8.8876Y-3.5532
X8.8876Y-3.6532
X8.8876Y-3.7532
X8.8876Y-3.8532
X8.8876Y-3.9532
X8.8876Y-4.0532
X8.8876Y-4.1532
X8.8876Y-4.2532
X8.8876Y-4.3532
X8.8876Y-4.4532
X8.8876Y-4.5532
X8.8876Y-4.6532
X8.8876Y-4.7532
X8.8876Y-4.8532
X8.8876Y-4.9532
X8.8876Y-5.0532
X8.8876Y-5.1532
X8.8876Y-5.2532
X8.8876Y-5.3532
X9.8876Y-3.5532
X9.8876Y-3.6532
X9.8876Y-3.7532
X9.8876Y-3.8532
X9.8876Y-3.9532
X9.8876Y-4.0532
X9.8876Y-4.1532
X9.8876Y-4.2532
X9.8876Y-4.3532
X9.8876Y-4.4532
X9.8876Y-4.5532
X9.8876Y-4.6532
X9.8876Y-4.7532
X9.8876Y-4.8532
X9.8876Y-4.9532
X9.8876Y-5.0532
X9.8876Y-5.1532
X9.8876Y-5.2532
X9.8876Y-5.3532
T6
X7.9134Y-2.7953
X7.9134Y-5.5118
X10.1969Y-2.7953
X10.1969Y-5.5118
T7
X8.7402Y-2.9528
X9.7244Y-2.9528
T4
G00X9.0849Y-2.9921
M15
G01X9.0849Y-3.0709
M16
G05
G00X9.3094Y-2.9134
M15
G01X9.2306Y-2.9134
M16
G05
G00X9.3094Y-3.1496
M15
G01X9.2306Y-3.1496
M16
G05
T0
M30
